<?xml version="1.0" encoding="UTF-8" standalone="no"?>
<!-- Created with Inkscape (http://www.inkscape.org/) -->

<svg
   xmlns:dc="http://purl.org/dc/elements/1.1/"
   xmlns:cc="http://creativecommons.org/ns#"
   xmlns:rdf="http://www.w3.org/1999/02/22-rdf-syntax-ns#"
   xmlns:svg="http://www.w3.org/2000/svg"
   xmlns="http://www.w3.org/2000/svg"
   xmlns:sodipodi="http://sodipodi.sourceforge.net/DTD/sodipodi-0.dtd"
   xmlns:inkscape="http://www.inkscape.org/namespaces/inkscape"
   width="250"
   height="125"
   viewBox="0 0 66.145831 33.072918"
   version="1.1"
   id="svg8"
   inkscape:version="0.92.3 (2405546, 2018-03-11)"
   sodipodi:docname="chalete_overlay.svg">
  <defs
     id="defs2">
    <clipPath
       id="clipPath20"
       clipPathUnits="userSpaceOnUse">
      <path
         inkscape:connector-curvature="0"
         id="path18"
         d="M 0,170.079 H 198.425 V 0 H 0 Z" />
    </clipPath>
    <clipPath
       clipPathUnits="userSpaceOnUse"
       id="clipPath26">
      <path
         d="M 0,209 H 595.28 V 0 H 0 Z"
         id="path24-7"
         inkscape:connector-curvature="0" />
    </clipPath>
    <clipPath
       clipPathUnits="userSpaceOnUse"
       id="clipPath79">
      <path
         d="M 0,209 H 595.28 V 0 H 0 Z"
         id="path77"
         inkscape:connector-curvature="0" />
    </clipPath>
  </defs>
  <sodipodi:namedview
     id="base"
     pagecolor="#ffffff"
     bordercolor="#666666"
     borderopacity="1.0"
     inkscape:pageopacity="0.0"
     inkscape:pageshadow="2"
     inkscape:zoom="2.8"
     inkscape:cx="63.466845"
     inkscape:cy="70.041472"
     inkscape:document-units="px"
     inkscape:current-layer="layer1"
     showgrid="false"
     units="px"
     inkscape:window-width="1865"
     inkscape:window-height="1025"
     inkscape:window-x="55"
     inkscape:window-y="27"
     inkscape:window-maximized="1" />
  <metadata
     id="metadata5">
    <rdf:RDF>
      <cc:Work
         rdf:about="">
        <dc:format>image/svg+xml</dc:format>
        <dc:type
           rdf:resource="http://purl.org/dc/dcmitype/StillImage" />
        <dc:title></dc:title>
      </cc:Work>
    </rdf:RDF>
  </metadata>
  <g
     inkscape:label="Layer 1"
     inkscape:groupmode="layer"
     id="layer1"
     transform="translate(0,-263.92707)">
    <rect
       style="opacity:1;fill:#141d24;fill-opacity:1;stroke:none;stroke-width:1.1187892;stroke-linecap:round;stroke-linejoin:round;stroke-miterlimit:4;stroke-dasharray:none;stroke-opacity:1"
       id="rect917"
       width="66.145836"
       height="33.072918"
       x="4.4408921e-16"
       y="263.92709" />
    <g
       aria-label="CHALETE"
       style="font-style:normal;font-weight:normal;font-size:8.51469612px;line-height:1.25;font-family:sans-serif;letter-spacing:0px;word-spacing:0px;fill:#000000;fill-opacity:1;stroke:none;stroke-width:0.21286739"
       id="text835">
      <path
         d="m 19.145072,277.83389 v 0.88556 q -0.424072,-0.39496 -0.90635,-0.59037 -0.47812,-0.19541 -1.018604,-0.19541 -1.064337,0 -1.629766,0.65274 -0.565429,0.64858 -0.565429,1.87922 0,1.22648 0.565429,1.87922 0.565429,0.64858 1.629766,0.64858 0.540484,0 1.018604,-0.1954 0.482278,-0.19541 0.90635,-0.59038 v 0.87725 q -0.440702,0.29934 -0.935453,0.44902 -0.490593,0.14967 -1.039391,0.14967 -1.409415,0 -2.220141,-0.86062 -0.810725,-0.86477 -0.810725,-2.35734 0,-1.49672 0.810725,-2.35734 0.810726,-0.86477 2.220141,-0.86477 0.557114,0 1.047706,0.14967 0.494751,0.14551 0.927138,0.4407 z"
         style="fill:#ffffff;fill-opacity:1;stroke-width:0.21286739"
         id="path837" />
      <path
         d="m 20.450548,277.35577 h 0.839828 v 2.54443 h 3.051654 v -2.54443 h 0.839828 v 6.20725 H 24.34203 v -2.95603 h -3.051654 v 2.95603 h -0.839828 z"
         style="fill:#ffffff;fill-opacity:1;stroke-width:0.21286739"
         id="path839" />
      <path
         d="m 28.927825,278.18313 -1.139173,3.08907 h 2.282504 z m -0.473963,-0.82736 h 0.952083 l 2.365656,6.20725 h -0.873089 l -0.565429,-1.59235 H 27.53504 l -0.565429,1.59235 H 26.08405 Z"
         style="fill:#ffffff;fill-opacity:1;stroke-width:0.21286739"
         id="path841" />
      <path
         d="m 32.673792,277.35577 h 0.839829 v 5.50046 h 3.022551 v 0.70679 h -3.86238 z"
         style="fill:#ffffff;fill-opacity:1;stroke-width:0.21286739"
         id="path843" />
      <path
         d="m 37.413418,277.35577 h 3.924743 v 0.70679 h -3.084914 v 1.83764 h 2.956029 v 0.70679 h -2.956029 v 2.24924 h 3.15975 v 0.70679 h -3.999579 z"
         style="fill:#ffffff;fill-opacity:1;stroke-width:0.21286739"
         id="path845" />
      <path
         d="m 41.941008,277.35577 h 5.251007 v 0.70679 h -2.20351 v 5.50046 h -0.843986 v -5.50046 h -2.203511 z"
         style="fill:#ffffff;fill-opacity:1;stroke-width:0.21286739"
         id="path847" />
      <path
         d="m 48.006899,277.35577 h 3.924743 v 0.70679 h -3.084914 v 1.83764 h 2.956029 v 0.70679 h -2.956029 v 2.24924 h 3.15975 v 0.70679 h -3.999579 z"
         style="fill:#ffffff;fill-opacity:1;stroke-width:0.21286739"
         id="path849" />
    </g>
  </g>
</svg>
