<?xml version="1.0" encoding="UTF-8" standalone="no"?>
<!-- Created with Inkscape (http://www.inkscape.org/) -->

<svg
   xmlns:dc="http://purl.org/dc/elements/1.1/"
   xmlns:cc="http://creativecommons.org/ns#"
   xmlns:rdf="http://www.w3.org/1999/02/22-rdf-syntax-ns#"
   xmlns:svg="http://www.w3.org/2000/svg"
   xmlns="http://www.w3.org/2000/svg"
   xmlns:sodipodi="http://sodipodi.sourceforge.net/DTD/sodipodi-0.dtd"
   xmlns:inkscape="http://www.inkscape.org/namespaces/inkscape"
   width="250"
   height="125"
   viewBox="0 0 66.145831 33.072918"
   version="1.1"
   id="svg8"
   inkscape:version="0.92.3 (2405546, 2018-03-11)"
   sodipodi:docname="dansan_overlay.svg">
  <defs
     id="defs2">
    <clipPath
       id="clipPath20"
       clipPathUnits="userSpaceOnUse">
      <path
         inkscape:connector-curvature="0"
         id="path18"
         d="M 0,170.079 H 198.425 V 0 H 0 Z" />
    </clipPath>
    <clipPath
       clipPathUnits="userSpaceOnUse"
       id="clipPath26">
      <path
         d="M 0,209 H 595.28 V 0 H 0 Z"
         id="path24-7"
         inkscape:connector-curvature="0" />
    </clipPath>
    <clipPath
       clipPathUnits="userSpaceOnUse"
       id="clipPath79">
      <path
         d="M 0,209 H 595.28 V 0 H 0 Z"
         id="path77"
         inkscape:connector-curvature="0" />
    </clipPath>
  </defs>
  <sodipodi:namedview
     id="base"
     pagecolor="#ffffff"
     bordercolor="#666666"
     borderopacity="1.0"
     inkscape:pageopacity="0.0"
     inkscape:pageshadow="2"
     inkscape:zoom="3.959798"
     inkscape:cx="124.48682"
     inkscape:cy="83.555411"
     inkscape:document-units="px"
     inkscape:current-layer="layer1"
     showgrid="false"
     units="px"
     inkscape:window-width="1865"
     inkscape:window-height="1025"
     inkscape:window-x="55"
     inkscape:window-y="27"
     inkscape:window-maximized="1" />
  <metadata
     id="metadata5">
    <rdf:RDF>
      <cc:Work
         rdf:about="">
        <dc:format>image/svg+xml</dc:format>
        <dc:type
           rdf:resource="http://purl.org/dc/dcmitype/StillImage" />
        <dc:title></dc:title>
      </cc:Work>
    </rdf:RDF>
  </metadata>
  <g
     inkscape:label="Layer 1"
     inkscape:groupmode="layer"
     id="layer1"
     transform="translate(0,-263.92707)">
    <rect
       style="opacity:1;fill:#141d24;fill-opacity:1;stroke:none;stroke-width:1.1187892;stroke-linecap:round;stroke-linejoin:round;stroke-miterlimit:4;stroke-dasharray:none;stroke-opacity:1"
       id="rect917"
       width="66.145836"
       height="33.072918"
       x="0"
       y="263.92706" />
    <g
       id="g938"
       transform="matrix(0.87401435,0,0,0.87401435,4.1679102,35.335114)">
      <path
         transform="matrix(0.26458333,0,0,0.26458333,0,263.92707)"
         id="path908"
         d="M 74.152344,34.464844 A 22.544643,22.544643 0 0 0 51.607422,57.009766 22.544643,22.544643 0 0 0 61.076172,75.351562 22.544643,22.544643 0 0 1 55.447266,60.490234 22.544643,22.544643 0 0 1 77.990234,37.947266 22.544643,22.544643 0 0 1 91.070312,42.150391 22.544643,22.544643 0 0 0 74.152344,34.464844 Z"
         style="opacity:1;fill:#ffffff;fill-opacity:1;stroke:none;stroke-width:2.93036771;stroke-linecap:round;stroke-linejoin:round;stroke-miterlimit:4;stroke-dasharray:none;stroke-opacity:1"
         inkscape:connector-curvature="0" />
      <path
         id="path913"
         transform="matrix(0.26458333,0,0,0.26458333,0,263.92707)"
         d="M 70.580078,30.535156 A 27.276785,27.276785 0 0 0 43.302734,57.8125 27.276785,27.276785 0 0 0 70.580078,85.089844 27.276785,27.276785 0 0 0 76.068359,84.501953 27.276785,27.276785 0 0 1 49.822266,57.277344 27.276785,27.276785 0 0 1 71.613281,30.587891 27.276785,27.276785 0 0 0 70.580078,30.535156 Z"
         style="opacity:1;fill:#ffffff;fill-opacity:1;stroke:none;stroke-width:3.06010008;stroke-linecap:round;stroke-linejoin:round;stroke-miterlimit:4;stroke-dasharray:none;stroke-opacity:1"
         inkscape:connector-curvature="0" />
      <path
         id="path918"
         transform="matrix(0.26458333,0,0,0.26458333,0,263.92707)"
         d="M 47.730469,37.375 A 32.350209,32.350209 0 0 0 36.072266,62.203125 32.350209,32.350209 0 0 0 68.421875,94.552734 32.350209,32.350209 0 0 0 94.160156,81.732422 32.350209,32.350209 0 0 1 73.472656,89.25 32.350209,32.350209 0 0 1 41.123047,56.900391 32.350209,32.350209 0 0 1 47.730469,37.375 Z"
         style="opacity:1;fill:#ffffff;fill-opacity:1;stroke:none;stroke-width:2.43169332;stroke-linecap:round;stroke-linejoin:round;stroke-miterlimit:4;stroke-dasharray:none;stroke-opacity:1"
         inkscape:connector-curvature="0" />
    </g>
    <path
       style="fill:#ffffff;fill-opacity:1;stroke:none;stroke-width:0.23124962px;stroke-linecap:butt;stroke-linejoin:miter;stroke-opacity:1"
       d="M 22.461407,277.52203 H 19.6637 l -0.774273,5.678 h 5.048262 l 0.970422,-6.8962 -1.899551,-0.0206 -0.898156,6.32838 -1.249162,0.0104 0.609096,-4.45982 h 0.949775 z"
       id="path923"
       inkscape:connector-curvature="0" />
    <path
       style="fill:#ffffff;fill-opacity:1;stroke:none;stroke-width:0.23124962px;stroke-linecap:butt;stroke-linejoin:miter;stroke-opacity:1"
       d="m 25.534772,277.55087 h 5.044244 l -0.78839,5.69393 h -5.080744 l 0.620493,-4.43105 h 2.846967 l -0.073,0.62779 h -0.978189 l -0.416096,3.18277 h 1.255587 l 0.642392,-4.44566 h -3.197363 z"
       id="path925"
       inkscape:connector-curvature="0" />
    <path
       inkscape:connector-curvature="0"
       id="path927"
       d="m 42.857847,277.55087 h 5.044245 l -0.788391,5.69393 h -5.080744 l 0.620493,-4.43105 h 2.846968 l -0.073,0.62779 h -0.978189 l -0.416096,3.18277 h 1.255587 l 0.642392,-4.44566 H 42.73375 Z"
       style="fill:#ffffff;fill-opacity:1;stroke:none;stroke-width:0.23124962px;stroke-linecap:butt;stroke-linejoin:miter;stroke-opacity:1" />
    <path
       style="fill:#ffffff;fill-opacity:1;stroke:none;stroke-width:0.23124962px;stroke-linecap:butt;stroke-linejoin:miter;stroke-opacity:1"
       d="m 30.503526,283.22068 0.794922,-5.68833 h 5.068908 l -0.794921,5.75028 h -1.93052 l 0.722655,-5.07925 h -1.21819 l -0.732978,5.05859 z"
       id="path929"
       inkscape:connector-curvature="0" />
    <path
       inkscape:connector-curvature="0"
       id="path931"
       d="m 47.80795,283.22068 0.794922,-5.68833 h 5.068908 l -0.794921,5.75028 h -1.93052 l 0.722655,-5.07925 h -1.21819 l -0.732978,5.05859 z"
       style="fill:#ffffff;fill-opacity:1;stroke:none;stroke-width:0.23124962px;stroke-linecap:butt;stroke-linejoin:miter;stroke-opacity:1" />
    <path
       style="fill:#ffffff;fill-opacity:1;stroke:none;stroke-width:0.23124962px;stroke-linecap:butt;stroke-linejoin:miter;stroke-opacity:1"
       d="m 38.442409,281.3521 h -1.889228 l -0.25809,1.89954 h 5.058585 l 0.454241,-3.17968 h -3.169359 l 0.247768,-1.89954 h 1.249159 l -0.134206,1.25948 h 1.878904 l 0.247767,-1.86858 h -5.037939 l -0.443916,3.14871 h 3.148711 l -0.25809,1.90988 h -1.249163 z"
       id="path933"
       inkscape:connector-curvature="0" />
  </g>
  <style
     type="text/css"
     id="style4403">
	.st0{fill:#FFFFFF;}
</style>
  <style
     type="text/css"
     id="style4403-7">
	.st0{fill:#FFFFFF;}
</style>
</svg>
