<?xml version="1.0" encoding="UTF-8" standalone="no"?>
<!-- Created with Inkscape (http://www.inkscape.org/) -->

<svg
   xmlns:dc="http://purl.org/dc/elements/1.1/"
   xmlns:cc="http://creativecommons.org/ns#"
   xmlns:rdf="http://www.w3.org/1999/02/22-rdf-syntax-ns#"
   xmlns:svg="http://www.w3.org/2000/svg"
   xmlns="http://www.w3.org/2000/svg"
   xmlns:sodipodi="http://sodipodi.sourceforge.net/DTD/sodipodi-0.dtd"
   xmlns:inkscape="http://www.inkscape.org/namespaces/inkscape"
   width="250"
   height="125"
   viewBox="0 0 66.145831 33.072918"
   version="1.1"
   id="svg8"
   inkscape:version="0.92.3 (2405546, 2018-03-11)"
   sodipodi:docname="2_overlay.svg">
  <defs
     id="defs2">
    <clipPath
       id="clipPath20"
       clipPathUnits="userSpaceOnUse">
      <path
         inkscape:connector-curvature="0"
         id="path18"
         d="M 0,170.079 H 198.425 V 0 H 0 Z" />
    </clipPath>
    <clipPath
       clipPathUnits="userSpaceOnUse"
       id="clipPath26">
      <path
         d="M 0,209 H 595.28 V 0 H 0 Z"
         id="path24-7"
         inkscape:connector-curvature="0" />
    </clipPath>
    <clipPath
       clipPathUnits="userSpaceOnUse"
       id="clipPath79">
      <path
         d="M 0,209 H 595.28 V 0 H 0 Z"
         id="path77"
         inkscape:connector-curvature="0" />
    </clipPath>
  </defs>
  <sodipodi:namedview
     id="base"
     pagecolor="#ffffff"
     bordercolor="#666666"
     borderopacity="1.0"
     inkscape:pageopacity="0.0"
     inkscape:pageshadow="2"
     inkscape:zoom="2.8"
     inkscape:cx="78.501299"
     inkscape:cy="49.740284"
     inkscape:document-units="px"
     inkscape:current-layer="layer1"
     showgrid="false"
     units="px"
     inkscape:window-width="1865"
     inkscape:window-height="1025"
     inkscape:window-x="55"
     inkscape:window-y="27"
     inkscape:window-maximized="1" />
  <metadata
     id="metadata5">
    <rdf:RDF>
      <cc:Work
         rdf:about="">
        <dc:format>image/svg+xml</dc:format>
        <dc:type
           rdf:resource="http://purl.org/dc/dcmitype/StillImage" />
        <dc:title />
      </cc:Work>
    </rdf:RDF>
  </metadata>
  <g
     inkscape:label="Layer 1"
     inkscape:groupmode="layer"
     id="layer1"
     transform="translate(0,-263.92707)">
    <rect
       style="opacity:1;fill:#141d24;fill-opacity:1;stroke:none;stroke-width:1.1187892;stroke-linecap:round;stroke-linejoin:round;stroke-miterlimit:4;stroke-dasharray:none;stroke-opacity:1"
       id="rect917"
       width="66.145836"
       height="33.072918"
       x="4.4408921e-16"
       y="263.92709" />
    <g
       transform="matrix(0.15781193,0,0,0.15781193,16.989878,238.52647)"
       id="layer1-5"
       inkscape:label="Layer 1">
      <g
         id="g71"
         inkscape:label="Logo_Dark8_white"
         transform="matrix(0.35277777,0,0,-0.35277777,-2.997976,302.87758)">
        <g
           id="g73">
          <g
             id="g75"
             clip-path="url(#clipPath79)">
            <g
               id="g81"
               transform="translate(101.6172,61.8516)">
              <path
                 d="m 0,0 c -2.201,-6.732 -5.445,-12.578 -9.721,-17.547 -4.275,-4.97 -9.591,-8.869 -15.941,-11.697 -6.357,-2.832 -13.678,-4.249 -21.984,-4.249 H -79.912 V 77.079 h 32.266 c 8.177,0 15.412,-1.352 21.697,-4.056 6.29,-2.705 11.606,-6.509 15.948,-11.417 4.338,-4.904 7.64,-10.725 9.908,-17.448 C 2.167,37.421 3.299,30.03 3.299,21.982 3.299,14.058 2.199,6.726 0,0 m 0.374,69.155 c -5.348,6.038 -12.011,10.817 -19.998,14.341 -7.99,3.522 -17.333,5.282 -28.022,5.282 H -93.119 V -45.188 h 45.473 c 9.813,0 18.649,1.599 26.511,4.812 7.859,3.203 14.589,7.734 20.192,13.584 5.594,5.848 9.903,12.892 12.922,21.133 3.018,8.235 4.531,17.454 4.531,27.641 0,9.18 -1.356,17.831 -4.059,25.947 -2.704,8.11 -6.73,15.187 -12.077,21.226"
                 style="fill:#ffffff;fill-opacity:1;fill-rule:nonzero;stroke:none"
                 id="path83"
                 inkscape:connector-curvature="0" />
            </g>
            <g
               id="g85"
               transform="translate(165.605,68.9277)">
              <path
                 d="M 0,0 27.361,66.228 54.339,0 Z M 21.887,81.702 -34.155,-52.264 h 14.154 l 17.173,41.888 h 60.186 l 17.36,-41.888 H 88.683 L 33.019,81.702 Z"
                 style="fill:#ffffff;fill-opacity:1;fill-rule:nonzero;stroke:none"
                 id="path87"
                 inkscape:connector-curvature="0" />
            </g>
            <g
               id="g89"
               transform="translate(286.0107,77.793)">
              <path
                 d="m 0,0 v 61.138 h 42.637 c 3.648,0 7.138,-0.823 10.475,-2.455 3.331,-1.637 6.226,-3.837 8.678,-6.599 2.455,-2.771 4.402,-6.012 5.848,-9.721 1.443,-3.715 2.173,-7.579 2.173,-11.601 0,-4.031 -0.632,-7.864 -1.888,-11.515 C 66.664,15.599 64.903,12.33 62.638,9.438 60.374,6.543 57.637,4.249 54.432,2.552 51.223,0.855 47.67,0 43.772,0 Z m 65.47,-4.432 c 3.646,2.453 6.763,5.472 9.341,9.056 2.577,3.587 4.588,7.61 6.036,12.08 1.443,4.46 2.173,9.151 2.173,14.058 0,5.152 -0.982,10.248 -2.927,15.283 -1.952,5.03 -4.689,9.53 -8.208,13.487 -3.525,3.965 -7.706,7.173 -12.547,9.623 -4.842,2.457 -10.158,3.682 -15.943,3.682 H -13.211 V -61.129 H 0 v 49.434 H 39.621 L 71.129,-61.129 H 86.038 L 53.206,-9.43 c 4.526,0.881 8.613,2.546 12.264,4.998"
                 style="fill:#ffffff;fill-opacity:1;fill-rule:nonzero;stroke:none"
                 id="path91"
                 inkscape:connector-curvature="0" />
            </g>
            <g
               id="g93"
               transform="translate(501.3242,150.6299)">
              <path
                 d="m 0,0 h -14.528 l -73.778,-77.929 v 77.742 h -13.206 v -133.782 h 13.206 v 41.133 l 25.286,26.229 51.323,-67.362 H 2.83 l -57.55,75.101 z"
                 style="fill:#ffffff;fill-opacity:1;fill-rule:nonzero;stroke:none"
                 id="path95"
                 inkscape:connector-curvature="0" />
            </g>
            <g
               id="g97"
               transform="translate(575.833,123.5449)">
              <path
                 d="m 0,0 c -1.276,-2.264 -2.941,-4.198 -5.003,-5.805 -2.057,-1.606 -4.382,-2.841 -6.975,-3.704 -2.594,-0.867 -5.207,-1.294 -7.841,-1.294 -2.642,0 -5.249,0.409 -7.846,1.231 -2.591,0.821 -4.939,2.015 -7.037,3.582 -2.099,1.559 -3.809,3.475 -5.127,5.741 -1.318,2.263 -1.975,4.838 -1.975,7.72 0,2.797 0.618,5.351 1.855,7.661 1.233,2.304 2.875,4.256 4.935,5.863 2.062,1.606 4.368,2.839 6.919,3.706 2.551,0.863 5.188,1.292 7.905,1.292 2.549,0 5.144,-0.411 7.781,-1.231 2.633,-0.825 5.018,-2.017 7.164,-3.582 2.139,-1.566 3.866,-3.482 5.184,-5.741 C 1.256,13.171 1.916,10.559 1.916,7.593 1.916,4.796 1.278,2.263 0,0 m -37.234,41.248 c -1.157,1.852 -1.728,3.973 -1.728,6.36 0,2.302 0.533,4.407 1.603,6.299 1.072,1.892 2.472,3.48 4.202,4.759 1.727,1.271 3.724,2.263 5.985,2.961 2.264,0.7 4.594,1.049 6.982,1.049 2.469,0 4.858,-0.331 7.161,-0.987 2.303,-0.66 4.34,-1.627 6.114,-2.899 1.772,-1.281 3.19,-2.844 4.26,-4.696 1.069,-1.854 1.608,-3.933 1.608,-6.237 0,-2.389 -0.581,-4.53 -1.73,-6.422 -1.154,-1.895 -2.655,-3.502 -4.507,-4.819 -1.855,-1.318 -3.889,-2.305 -6.114,-2.963 -2.223,-0.658 -4.445,-0.987 -6.668,-0.987 -2.146,0 -4.346,0.329 -6.61,0.987 -2.263,0.658 -4.303,1.623 -6.112,2.903 -1.815,1.274 -3.293,2.84 -4.446,4.692 M 9.018,14.759 c -0.95,2.385 -2.224,4.524 -3.827,6.421 -1.612,1.894 -3.484,3.557 -5.621,5 -2.142,1.439 -4.406,2.572 -6.792,3.395 1.977,0.827 3.845,1.834 5.618,3.028 1.768,1.192 3.333,2.595 4.694,4.198 1.359,1.61 2.426,3.355 3.211,5.252 0.782,1.891 1.172,3.908 1.172,6.053 0,3.538 -0.824,6.707 -2.471,9.508 -1.645,2.797 -3.766,5.125 -6.356,6.979 -2.595,1.85 -5.519,3.27 -8.771,4.258 -3.255,0.989 -6.528,1.482 -9.818,1.482 -3.293,0 -6.569,-0.493 -9.819,-1.482 -3.253,-0.988 -6.178,-2.428 -8.769,-4.323 -2.592,-1.896 -4.716,-4.219 -6.359,-6.976 -1.649,-2.762 -2.472,-5.95 -2.472,-9.57 0,-2.143 0.391,-4.16 1.176,-6.054 0.778,-1.897 1.83,-3.624 3.146,-5.185 1.318,-1.57 2.842,-2.948 4.571,-4.14 1.73,-1.194 3.582,-2.201 5.559,-3.028 -2.144,-0.738 -4.265,-1.787 -6.361,-3.146 -2.099,-1.363 -3.976,-2.964 -5.619,-4.818 -1.649,-1.85 -2.988,-3.969 -4.017,-6.359 -1.03,-2.388 -1.541,-4.984 -1.541,-7.781 0,-3.54 0.74,-6.873 2.223,-10.003 1.481,-3.131 3.56,-5.868 6.235,-8.214 2.675,-2.343 5.869,-4.199 9.573,-5.558 3.704,-1.356 7.74,-2.036 12.102,-2.036 4.116,0 8.048,0.598 11.794,1.789 3.75,1.192 7.02,2.902 9.819,5.125 2.798,2.228 5.022,4.878 6.666,7.964 1.652,3.088 2.474,6.568 2.474,10.439 0,2.797 -0.473,5.389 -1.42,7.782"
                 style="fill:#ffffff;fill-opacity:1;fill-rule:nonzero;stroke:none"
                 id="path99"
                 inkscape:connector-curvature="0" />
            </g>
          </g>
        </g>
      </g>
    </g>
  </g>
</svg>
