<?xml version="1.0" encoding="UTF-8" standalone="no"?>
<!-- Created with Inkscape (http://www.inkscape.org/) -->

<svg
   xmlns:dc="http://purl.org/dc/elements/1.1/"
   xmlns:cc="http://creativecommons.org/ns#"
   xmlns:rdf="http://www.w3.org/1999/02/22-rdf-syntax-ns#"
   xmlns:svg="http://www.w3.org/2000/svg"
   xmlns="http://www.w3.org/2000/svg"
   xmlns:sodipodi="http://sodipodi.sourceforge.net/DTD/sodipodi-0.dtd"
   xmlns:inkscape="http://www.inkscape.org/namespaces/inkscape"
   width="250"
   height="125"
   viewBox="0 0 66.145831 33.072918"
   version="1.1"
   id="svg8"
   inkscape:version="0.92.3 (2405546, 2018-03-11)"
   sodipodi:docname="lastra_overlay.svg">
  <defs
     id="defs2">
    <clipPath
       id="clipPath20"
       clipPathUnits="userSpaceOnUse">
      <path
         inkscape:connector-curvature="0"
         id="path18"
         d="M 0,170.079 H 198.425 V 0 H 0 Z" />
    </clipPath>
    <clipPath
       clipPathUnits="userSpaceOnUse"
       id="clipPath26">
      <path
         d="M 0,209 H 595.28 V 0 H 0 Z"
         id="path24-7"
         inkscape:connector-curvature="0" />
    </clipPath>
    <clipPath
       clipPathUnits="userSpaceOnUse"
       id="clipPath79">
      <path
         d="M 0,209 H 595.28 V 0 H 0 Z"
         id="path77"
         inkscape:connector-curvature="0" />
    </clipPath>
    <clipPath
       id="clipPath20-3"
       clipPathUnits="userSpaceOnUse">
      <path
         inkscape:connector-curvature="0"
         id="path18-6"
         d="M 0,170.079 H 198.425 V 0 H 0 Z" />
    </clipPath>
  </defs>
  <sodipodi:namedview
     id="base"
     pagecolor="#ffffff"
     bordercolor="#666666"
     borderopacity="1.0"
     inkscape:pageopacity="0.0"
     inkscape:pageshadow="2"
     inkscape:zoom="1.979899"
     inkscape:cx="91.549306"
     inkscape:cy="118.5293"
     inkscape:document-units="px"
     inkscape:current-layer="layer1"
     showgrid="false"
     units="px"
     inkscape:window-width="1865"
     inkscape:window-height="1025"
     inkscape:window-x="55"
     inkscape:window-y="27"
     inkscape:window-maximized="1" />
  <metadata
     id="metadata5">
    <rdf:RDF>
      <cc:Work
         rdf:about="">
        <dc:format>image/svg+xml</dc:format>
        <dc:type
           rdf:resource="http://purl.org/dc/dcmitype/StillImage" />
        <dc:title></dc:title>
      </cc:Work>
    </rdf:RDF>
  </metadata>
  <g
     inkscape:label="Layer 1"
     inkscape:groupmode="layer"
     id="layer1"
     transform="translate(0,-263.92707)">
    <rect
       style="opacity:1;fill:#141d24;fill-opacity:1;stroke:none;stroke-width:1.1187892;stroke-linecap:round;stroke-linejoin:round;stroke-miterlimit:4;stroke-dasharray:none;stroke-opacity:1"
       id="rect917"
       width="66.145836"
       height="33.072918"
       x="4.4408921e-16"
       y="263.92709" />
    <path
       style="fill:#ffffff;fill-opacity:1;fill-rule:nonzero;stroke:none;stroke-width:0.65616947"
       d="M 124.97656 53.470703 C 104.27835 53.470703 87.351762 70.182052 86.076172 91.291016 L 163.87695 91.291016 C 162.60136 70.182052 145.67477 53.470703 124.97656 53.470703 z M 143.23047 67.445312 C 143.68716 67.471769 143.80856 67.663112 143.8125 68.099609 C 143.81704 68.771496 143.7148 69.451258 143.88477 70.107422 C 145.14658 70.383705 145.19009 70.355496 145.52539 69.101562 C 145.93418 67.570706 146.10581 67.438386 147.64453 67.658203 C 146.49755 69.490216 146.61406 71.366984 147.43164 73.222656 C 146.36668 73.602574 146.07174 73.481967 145.72266 72.541016 C 145.60062 72.212197 145.47612 71.865358 145.45117 71.519531 C 145.39803 70.778064 144.92584 70.820993 144.41797 70.820312 C 143.80117 70.820312 143.84242 71.24606 143.8457 71.667969 C 143.84767 71.874709 143.86262 72.084328 143.84375 72.289062 C 143.73875 73.457012 143.83144 74.297609 145.22656 74.783203 C 146.81187 75.335014 147.67325 77.357009 147.41406 78.908203 C 147.15554 80.459397 145.87833 81.641612 144.11914 81.929688 C 142.15654 82.24981 140.476 81.725832 139.29883 79.996094 C 137.88216 77.914708 139.04759 74.838614 141.45703 74.330078 C 142.09286 74.196283 142.24641 73.931087 142.20508 73.337891 C 142.16702 72.778861 142.19538 72.215292 142.19727 71.654297 C 142.19792 71.233031 142.24968 70.813118 141.62109 70.816406 C 141.09419 70.819052 140.65578 70.816495 140.63281 71.550781 C 140.62299 71.865238 140.49763 72.18515 140.38281 72.484375 C 140.00747 73.461421 139.92369 73.502938 138.77539 73.380859 C 139.60085 69.755537 139.44092 70.283406 138.74023 67.757812 C 140.05913 67.431642 140.3119 67.65231 140.63867 69.408203 C 140.70428 69.761211 140.62367 70.19435 141.19336 70.234375 C 141.86921 70.280107 142.32322 70.168042 142.20117 69.304688 C 142.1605 69.014798 142.23474 68.708628 142.1875 68.421875 C 142.03526 67.501938 142.52772 67.405253 143.23047 67.445312 z M 101.12695 71.460938 C 101.12695 71.460938 101.57421 73.212586 102.6582 74.335938 C 103.74219 75.459287 105.43359 75.921875 105.43359 75.921875 C 105.43359 75.921875 103.75072 76.376564 102.6582 77.507812 C 101.56568 78.639705 101.12695 80.382813 101.12695 80.382812 C 101.12695 80.382812 100.72955 78.680373 99.597656 77.507812 C 98.465763 76.335216 96.822266 75.921875 96.822266 75.921875 C 96.822266 75.921875 98.537287 75.435022 99.597656 74.335938 C 100.65803 73.237493 101.12695 71.460936 101.12695 71.460938 z M 142.43555 74.941406 C 141.12406 74.925121 140.18698 75.962139 140.19141 77.685547 C 140.19519 79.421786 141.7376 81.117661 143.4082 81.222656 C 144.65361 81.300892 145.54446 80.571872 145.76953 79.289062 C 146.0635 77.610577 145.31613 76.063771 143.85156 75.322266 C 143.35222 75.069321 142.87271 74.946835 142.43555 74.941406 z M 105.45117 80.585938 C 105.45117 80.585938 105.72781 81.676203 106.40234 82.375 C 107.07689 83.073835 108.12891 83.361328 108.12891 83.361328 C 108.12891 83.361328 107.08148 83.644135 106.40234 84.347656 C 105.72321 85.051707 105.45117 86.134766 105.45117 86.134766 C 105.45117 86.134766 105.2021 85.077294 104.49805 84.347656 C 103.79398 83.618661 102.77148 83.361328 102.77148 83.361328 C 102.77148 83.361328 103.83794 83.058868 104.49805 82.375 C 105.1575 81.691926 105.45117 80.585938 105.45117 80.585938 z M 110.26367 87.103516 C 110.26367 87.103516 110.37296 87.527156 110.63477 87.798828 C 110.89722 88.070954 111.30469 88.181641 111.30469 88.181641 C 111.30469 88.181641 110.8992 88.290853 110.63477 88.564453 C 110.37099 88.838847 110.26367 89.261719 110.26367 89.261719 C 110.26367 89.261719 110.16817 88.848598 109.89453 88.564453 C 109.62089 88.281744 109.22266 88.181641 109.22266 88.181641 C 109.22266 88.181641 109.63797 88.065134 109.89453 87.798828 C 110.15109 87.533883 110.26367 87.103516 110.26367 87.103516 z "
       transform="matrix(0.26458333,0,0,0.26458333,0,263.92707)"
       id="path24" />
    <path
       inkscape:connector-curvature="0"
       id="path28"
       style="fill:#231f20;fill-opacity:1;fill-rule:nonzero;stroke:none;stroke-width:0.17361151"
       d="m 43.552039,288.26895 -0.01198,-0.19931 c -0.166667,-2.75695 -1.329864,-5.32206 -3.275702,-7.22276 -1.954171,-1.90885 -4.510427,-2.96025 -7.197586,-2.96025 -2.687333,0 -5.243589,1.0514 -7.19776,2.96025 -1.945838,1.9007 -3.109035,4.46581 -3.275702,7.22276 l -0.01198,0.19931 h 0.192709 3.376917 v -0.18767 H 22.77404 c 0.337501,-5.58509 4.816157,-10.00697 10.292732,-10.00697 5.476228,0 9.955057,4.42188 10.292385,10.00697 h -4.34949 l 0.07986,0.18767 h 4.269628 z" />
    <path
       inkscape:connector-curvature="0"
       id="path32"
       style="fill:#231f20;fill-opacity:1;fill-rule:nonzero;stroke:none;stroke-width:0.17361151"
       d="m 43.502282,284.13821 c -0.57014,-1.39618 -1.386114,-2.65018 -2.4257,-3.72709 -1.039412,-1.07674 -2.249832,-1.92205 -3.597751,-2.51268 -1.39549,-0.61163 -2.877958,-0.92153 -4.405913,-0.92153 -1.527955,0 -3.01025,0.3099 -4.405913,0.92153 -1.347746,0.59063 -2.558339,1.43594 -3.597751,2.51268 -1.039413,1.07691 -1.85556,2.33091 -2.4257,3.72709 -0.59028,1.44584 -0.889586,2.98143 -0.889586,4.56425 0,0.0314 5.21e-4,0.0627 0.001,0.0939 3.47e-4,0.0161 5.21e-4,0.0323 6.94e-4,0.0483 l 0.0021,0.1856 h 0.179167 4.213725 l 1.73e-4,-0.18768 h -4.213898 c -6.95e-4,-0.0467 -0.0019,-0.0932 -0.0019,-0.1401 0,-6.37224 4.986643,-11.53805 11.137873,-11.53805 6.151229,0 11.137873,5.16581 11.137873,11.53805 0,0.0469 -0.0012,0.0934 -0.0017,0.1401 H 39.33337 l 0.07986,0.18768 h 4.795844 0.178994 l 0.0021,-0.1856 c 1.74e-4,-0.016 5.21e-4,-0.0321 6.95e-4,-0.0483 5.21e-4,-0.0312 10e-4,-0.0625 10e-4,-0.0939 0,-1.58282 -0.299306,-3.11841 -0.889585,-4.56425" />
    <path
       inkscape:connector-curvature="0"
       id="path36"
       style="fill:#ffffff;fill-opacity:1;fill-rule:nonzero;stroke:none;stroke-width:0.17361151"
       d="m 29.016155,284.0938 c 0.51146,-0.40191 1.383337,-0.8783 1.775178,-1.36198 0.18941,-0.38507 0.528994,-0.86719 0.690279,-0.96216 0.597224,-0.35156 1.029516,-0.57812 1.23351,-1.29045 0.07118,-0.24879 0.03333,-0.35504 0.04392,-0.61719 -0.159029,0.0401 -0.144098,0.33993 -0.162154,0.41476 -0.17691,0.73177 -0.556772,1.05608 -1.210072,1.41649 -0.262327,0.14497 -0.544619,0.23386 -0.830036,0.27622 -1.462504,0.21753 -2.760771,-0.19879 -3.763204,-1.39584 -0.636633,-0.76042 -0.990106,-1.65087 -1.099308,-2.654 -0.01042,-0.0953 -5.2e-4,-0.19114 -0.0125,-0.28646 -0.03941,-0.31302 0.176563,-0.42812 0.465974,-0.31388 0.419966,0.16562 0.666147,0.38941 0.977432,0.71267 0.357467,0.37136 0.603821,0.83125 1.069447,1.07413 0.150174,0.0783 0.306251,0.20539 0.488717,0.24983 -0.005,-0.12413 -0.08524,-0.15364 -0.152431,-0.19514 -0.807988,-0.49896 -1.438372,-1.17552 -1.823442,-2.06563 -0.319792,-0.73889 -0.296528,-1.53021 -0.219271,-2.32622 0.01632,-0.16666 0.06476,-0.33177 0.0875,-0.49792 0.03767,-0.27413 0.212153,-0.34843 0.433161,-0.18524 0.236111,0.17448 0.415278,0.4184 0.573091,0.66545 0.436633,0.68386 0.827433,1.40157 1.381601,1.99897 0.336806,0.36302 0.668578,0.54739 1.096877,0.77014 0.02413,0.0125 0.05677,0.0679 0.111285,0.0656 -0.180035,-0.27621 -0.436112,-0.40989 -0.662154,-0.59392 -0.86146,-0.70174 -1.515108,-1.65765 -1.974657,-2.68786 -0.318751,-0.71406 -0.355036,-1.45712 -0.244619,-2.23646 0.02569,-0.18038 0.123959,-0.35747 0.164063,-0.53559 0.01215,-0.0542 0.02535,-0.11285 0.0974,-0.11354 0.05816,-3.5e-4 0.107813,0.0224 0.136979,0.0746 0.441668,0.78542 1.076565,1.12431 1.805907,1.50868 0.867884,0.45712 1.790282,0.80973 2.560076,1.4514 0.669272,0.55781 1.188891,1.26059 1.205037,2.17222 0.0024,0.13368 -0.07257,0.31129 -0.108333,0.43334 -0.03715,0.12691 -0.07257,0.2092 0.04201,0.28941 0.103125,0.0722 0.230903,-0.1316 0.307986,-0.18889 0.753301,-0.78768 0.831599,-1.5599 0.683509,-2.62518 -0.06024,-0.43368 -0.146875,-0.95695 -0.181598,-1.39601 -0.04878,-0.84636 0.325001,-1.34636 1.06719,-1.68143 0.411112,-0.18542 0.859204,-0.26441 1.3066,-0.2908 0.212848,-0.0125 0.428474,-0.11094 0.642884,-0.0674 0.04444,0.1467 -0.0316,0.2632 -0.06215,0.37952 -0.215278,0.81441 -0.161806,1.62743 -0.02344,2.44497 0.160938,0.95104 0.432814,1.87604 0.600523,2.82483 0.289063,1.6342 -0.23073,3.03351 -1.462677,4.07032 -0.639759,0.53854 -1.333858,0.95226 -2.009206,1.43612 -1.630212,0.82344 -1.636289,1.0092 -1.704865,1.6875 -0.02899,0.28733 -0.159029,0.42448 -0.21198,0.88976 0.01424,0.0578 -0.230209,0.64983 -0.232987,0.72708 -0.33125,-0.16944 -0.188021,-1.2717 -0.672571,-1.36719 -0.444619,-0.0877 -1.856254,-0.021 -2.224484,-0.0977" />
    <path
       inkscape:connector-curvature="0"
       id="path56"
       style="fill:#231f20;fill-opacity:1;fill-rule:nonzero;stroke:none;stroke-width:0.17361151"
       d="m 28.490824,288.75911 h -0.07795 c -0.02014,0 -0.03785,0.0137 -0.0434,0.0337 -0.05816,0.20504 -0.12014,0.36129 -0.184029,0.46459 -0.06198,0.10034 -0.135937,0.17447 -0.219618,0.22031 -0.0842,0.046 -0.192188,0.0693 -0.321181,0.0693 h -0.214758 c -0.152084,0 -0.199827,-0.009 -0.213368,-0.0142 -0.03299,-0.0137 -0.05399,-0.0326 -0.06441,-0.0583 -0.0071,-0.0177 -0.01927,-0.0729 -0.01927,-0.24288 v -1.70192 c 0,-0.17205 0.0118,-0.21718 0.01701,-0.22916 0.01493,-0.0351 0.03403,-0.0587 0.05937,-0.0729 0.03837,-0.0233 0.09149,-0.0349 0.157813,-0.0349 h 0.112153 c 0.025,0 0.04531,-0.0212 0.04531,-0.0471 v -0.0729 c 0,-0.0259 -0.02031,-0.0469 -0.04531,-0.0469 H 26.10453 c -0.025,0 -0.04531,0.021 -0.04531,0.0469 v 0.0729 c 0,0.0259 0.02031,0.0471 0.04531,0.0471 h 0.08559 c 0.06372,0 0.114063,0.0106 0.149306,0.0319 0.03351,0.0201 0.05556,0.0429 0.06563,0.0674 0.0052,0.0127 0.01736,0.0615 0.01736,0.23767 v 1.75713 c 0,0.17204 -0.0118,0.21718 -0.01753,0.2302 -0.01372,0.0347 -0.03195,0.058 -0.05694,0.0719 -0.03837,0.0233 -0.09167,0.0351 -0.157813,0.0351 h -0.08559 c -0.025,0 -0.04531,0.021 -0.04531,0.0469 v 0.0729 c 0,0.0259 0.02031,0.0469 0.04531,0.0469 h 2.289241 c 0.02326,0 0.04271,-0.0181 0.04514,-0.0418 l 0.09688,-0.93768 c 0.0014,-0.0132 -0.0028,-0.0266 -0.01128,-0.0363 -0.0085,-0.0101 -0.02083,-0.0156 -0.03368,-0.0156" />
    <path
       inkscape:connector-curvature="0"
       id="path60"
       style="fill:#ffffff;fill-opacity:1;fill-rule:nonzero;stroke:none;stroke-width:0.17361151"
       d="m 27.479242,286.74426 h -1.374656 c -0.174827,0 -0.317015,0.1474 -0.317015,0.32847 v 0.0729 c 0,0.1809 0.142188,0.3283 0.317015,0.3283 h 0.04566 c 3.47e-4,0.0163 5.21e-4,0.0347 5.21e-4,0.0555 v 1.7573 c 0,0.021 -1.74e-4,0.0396 -5.21e-4,0.0557 h -0.04566 c -0.174827,0 -0.317015,0.14705 -0.317015,0.32813 v 0.0729 c 0,0.18108 0.142188,0.32848 0.317015,0.32848 h 2.289241 c 0.162501,0 0.297918,-0.12622 0.315105,-0.29341 l 0.09705,-0.93767 c 0.0095,-0.0925 -0.01944,-0.18525 -0.07951,-0.25469 -0.05955,-0.0687 -0.145486,-0.10868 -0.235591,-0.10868 h -0.07813 c -0.139584,0 -0.264584,0.0971 -0.304167,0.23594 -0.0632,0.22343 -0.117535,0.33645 -0.15191,0.39218 -0.03628,0.0587 -0.07587,0.10018 -0.117709,0.12309 -0.03073,0.0167 -0.08941,0.0366 -0.194271,0.0366 h -0.214931 -0.025 c -1.74e-4,-0.0104 -3.48e-4,-0.0219 -3.48e-4,-0.034 v -1.70192 c 0,-0.021 3.48e-4,-0.0394 5.21e-4,-0.0555 h 0.07431 c 0.174827,0 0.317015,-0.1474 0.317015,-0.3283 v -0.0729 c 0,-0.18107 -0.142188,-0.32847 -0.317015,-0.32847 m 0,0.28142 c 0.025,0 0.04531,0.021 0.04531,0.047 v 0.0729 c 0,0.0259 -0.02031,0.0469 -0.04531,0.0469 h -0.112153 c -0.06632,0 -0.119445,0.0116 -0.157813,0.0349 -0.02552,0.0142 -0.04444,0.0378 -0.05937,0.0729 -0.0054,0.012 -0.01719,0.0571 -0.01719,0.22916 v 1.70192 c 0,0.17014 0.01215,0.22517 0.01945,0.24305 0.01042,0.0255 0.03142,0.0444 0.06441,0.0583 0.01337,0.005 0.06129,0.0142 0.213195,0.0142 h 0.214931 c 0.12882,0 0.236806,-0.0233 0.321007,-0.0694 0.08385,-0.0458 0.157813,-0.11979 0.219793,-0.22014 0.06389,-0.1033 0.125694,-0.25972 0.183854,-0.46458 0.0057,-0.02 0.02344,-0.0339 0.0434,-0.0339 h 0.07813 c 0.01267,0 0.025,0.006 0.03368,0.0156 0.0085,0.01 0.01267,0.0231 0.01128,0.0363 l -0.09705,0.93785 c -0.0024,0.0236 -0.02188,0.0418 -0.04497,0.0418 h -2.289241 c -0.02517,0 -0.04531,-0.021 -0.04531,-0.0471 v -0.0729 c 0,-0.0259 0.02014,-0.0467 0.04531,-0.0467 h 0.08542 c 0.06632,0 0.119445,-0.0118 0.157813,-0.0351 0.025,-0.0139 0.04323,-0.0371 0.05712,-0.0719 0.0057,-0.013 0.01753,-0.0582 0.01753,-0.23021 v -1.7573 c 0,-0.17604 -0.01215,-0.22482 -0.01753,-0.23767 -0.0099,-0.0243 -0.03212,-0.0471 -0.06545,-0.0672 -0.03542,-0.0214 -0.08559,-0.0321 -0.149479,-0.0321 h -0.08542 c -0.02517,0 -0.04531,-0.021 -0.04531,-0.0469 v -0.0729 c 0,-0.026 0.02014,-0.047 0.04531,-0.047 h 1.374656" />
    <path
       inkscape:connector-curvature="0"
       id="path64"
       style="fill:#231f20;fill-opacity:1;fill-rule:nonzero;stroke:none;stroke-width:0.17361151"
       d="m 30.248467,288.79063 h -0.640974 l 0.325175,-0.75608 z m 1.285593,0.83334 c -0.06788,-0.006 -0.120313,-0.0255 -0.155556,-0.0589 -0.03594,-0.0337 -0.101042,-0.12656 -0.207813,-0.37604 l -0.929689,-2.19046 c -0.0073,-0.017 -0.02361,-0.0279 -0.04149,-0.0279 h -0.03611 c -0.01788,0 -0.03403,0.0108 -0.04149,0.0276 l -0.922224,2.13143 c -0.08472,0.19757 -0.156077,0.32882 -0.21198,0.38959 -0.05295,0.0576 -0.119097,0.0922 -0.202084,0.10521 -0.02205,0.003 -0.03837,0.0231 -0.03837,0.0462 v 0.0729 c 0,0.026 0.02014,0.0471 0.04514,0.0471 h 0.857641 c 0.025,0 0.04514,-0.021 0.04514,-0.0471 v -0.0729 c 0,-0.0245 -0.01823,-0.0448 -0.04184,-0.0467 -0.172223,-0.0134 -0.220487,-0.0332 -0.233334,-0.041 -0.04445,-0.0271 -0.0651,-0.0667 -0.0651,-0.125 0,-0.0498 0.01667,-0.11597 0.04948,-0.196 l 0.09653,-0.23178 h 0.851217 l 0.125,0.30434 c 0.0467,0.11372 0.05365,0.13594 0.05573,0.14358 0.0061,0.0201 0.0092,0.0399 0.0092,0.0587 0,0.0312 -0.01233,0.0446 -0.02222,0.0521 -0.0224,0.0158 -0.07274,0.0351 -0.185244,0.0351 h -0.05139 c -0.025,0 -0.04531,0.0208 -0.04531,0.0467 v 0.0729 c 0,0.026 0.02031,0.0471 0.04531,0.0471 h 1.247225 c 0.025,0 0.04531,-0.021 0.04531,-0.0471 v -0.0729 c 0,-0.0243 -0.01806,-0.0446 -0.04167,-0.0467" />
    <path
       inkscape:connector-curvature="0"
       id="path68"
       style="fill:#ffffff;fill-opacity:1;fill-rule:nonzero;stroke:none;stroke-width:0.17361151"
       d="m 29.679559,289.31164 h 0.492883 l 0.01858,0.045 c -0.125348,0.0394 -0.217883,0.15729 -0.22448,0.29826 -0.0078,-0.16389 -0.133681,-0.29913 -0.292883,-0.31146 -0.0024,-1.7e-4 -0.0047,-3.5e-4 -0.0071,-5.2e-4 z m 0.519966,-2.6224 h -0.03611 c -0.124826,0 -0.238195,0.076 -0.289236,0.19392 l -0.922225,2.13143 c -0.10625,0.24722 -0.155903,0.30521 -0.161285,0.31094 -0.0059,0.006 -0.01441,0.0156 -0.04531,0.0205 -0.156597,0.0247 -0.269965,0.16111 -0.269965,0.32465 v 0.0729 c 0,0.18107 0.142187,0.32847 0.317014,0.32847 h 0.857641 c 0.169445,0 0.308334,-0.13872 0.316494,-0.31233 0.0082,0.17361 0.147049,0.31233 0.316667,0.31233 h 1.247225 c 0.174827,0 0.317015,-0.1474 0.317015,-0.32847 v -0.0729 c 0,-0.16979 -0.127952,-0.31354 -0.291494,-0.32709 -0.0012,-1.7e-4 -0.0024,-3.4e-4 -0.0035,-3.4e-4 -0.02031,-0.0307 -0.06389,-0.10591 -0.133334,-0.26806 l -0.929516,-2.18993 c -0.05052,-0.1191 -0.16441,-0.19601 -0.290105,-0.19601 m -0.592015,2.10139 h 0.640974 l -0.315799,-0.75608 -0.325175,0.75608 m 0.592015,-1.81997 c 0.01788,0 0.0342,0.0109 0.04132,0.0279 l 0.929863,2.19046 c 0.106771,0.24948 0.171876,0.34236 0.207813,0.37604 0.03524,0.0333 0.08767,0.0533 0.155556,0.0589 0.02361,0.002 0.04167,0.0224 0.04167,0.0467 v 0.0729 c 0,0.026 -0.02031,0.047 -0.02847,0.047 h -1.247399 c -0.04167,0 -0.06198,-0.021 -0.06198,-0.047 v -0.0729 c 0,-0.0259 0.02031,-0.0467 0.04531,-0.0467 h 0.05122 c 0.1125,0 0.163021,-0.0193 0.185417,-0.0351 0.0099,-0.007 0.02222,-0.0208 0.02222,-0.0521 0,-0.0188 -0.0031,-0.0385 -0.0092,-0.0587 -0.0021,-0.008 -0.009,-0.0299 -0.05573,-0.14357 l -0.125,-0.30434 h -0.851217 l -0.09653,0.23177 c -0.03281,0.08 -0.04948,0.14618 -0.04948,0.196 0,0.0583 0.02066,0.0979 0.06511,0.125 0.01285,0.008 0.06094,0.0276 0.233334,0.041 0.02361,0.002 0.04184,0.0222 0.04184,0.0467 v 0.0729 c 0,0.026 -0.02014,0.047 -0.04514,0.047 h -0.857641 c -0.025,0 -0.04531,-0.021 -0.04531,-0.047 v -0.0729 c 0,-0.0231 0.01649,-0.0429 0.03854,-0.0462 0.08299,-0.013 0.149133,-0.0476 0.202084,-0.10521 0.05573,-0.0608 0.127257,-0.19201 0.21198,-0.38958 l 0.922224,-2.13143 c 0.0075,-0.0168 0.02361,-0.0276 0.04149,-0.0276 h 0.03611" />
    <path
       inkscape:connector-curvature="0"
       id="path72"
       style="fill:#231f20;fill-opacity:1;fill-rule:nonzero;stroke:none;stroke-width:0.17361151"
       d="m 32.810087,288.51411 c -0.226216,-0.15868 -0.304341,-0.23264 -0.330383,-0.26736 -0.01892,-0.0243 -0.02812,-0.0481 -0.02812,-0.0731 0,-0.034 0.01337,-0.0639 0.04097,-0.091 0.0283,-0.0278 0.06163,-0.0413 0.10191,-0.0413 0.07153,0 0.14566,0.0311 0.219965,0.0924 0.07674,0.063 0.153126,0.18541 0.227084,0.36371 0.0073,0.0174 0.02361,0.0285 0.04167,0.0285 h 0.06458 c 0.0125,0 0.02431,-0.005 0.03281,-0.0146 0.0087,-0.009 0.01302,-0.0217 0.0125,-0.0345 l -0.02847,-0.6283 c -0.0012,-0.025 -0.02118,-0.0448 -0.04531,-0.0448 h -0.06458 c -0.01493,0 -0.02899,0.008 -0.03733,0.0205 -0.03941,0.0596 -0.0533,0.0705 -0.05486,0.0713 -0.0061,0.005 -0.01632,0.007 -0.02951,0.007 -0.0076,0 -0.02587,-0.003 -0.06267,-0.0243 -0.09635,-0.0519 -0.197396,-0.0781 -0.300521,-0.0781 -0.191841,0 -0.341321,0.0635 -0.444099,0.18889 -0.101215,0.12309 -0.152604,0.26285 -0.152604,0.41545 0,0.14046 0.04566,0.27032 0.135417,0.38594 0.06042,0.0778 0.186632,0.18507 0.386285,0.3283 0.127952,0.0906 0.210765,0.15816 0.246008,0.2007 0.03108,0.0377 0.04618,0.0811 0.04618,0.13298 0,0.0422 -0.01441,0.0774 -0.04427,0.10712 -0.03021,0.0302 -0.06875,0.0448 -0.117709,0.0448 -0.07743,0 -0.1625,-0.0399 -0.253299,-0.11892 -0.09271,-0.0806 -0.167014,-0.20486 -0.221008,-0.3691 -0.0062,-0.0191 -0.02361,-0.0319 -0.04288,-0.0319 h -0.06458 c -0.0125,0 -0.02431,0.005 -0.03281,0.0146 -0.0087,0.009 -0.01319,0.0217 -0.0125,0.0346 l 0.03038,0.66198 c 0.0012,0.0248 0.02118,0.0446 0.04531,0.0446 h 0.06267 c 0.01805,0 0.0342,-0.0111 0.04149,-0.0279 0.01372,-0.0323 0.03559,-0.0707 0.06302,-0.0707 0.0014,0 0.01493,8.6e-4 0.06215,0.0189 0.148438,0.0576 0.264931,0.0856 0.356251,0.0856 0.116319,0 0.224132,-0.0285 0.32066,-0.0847 0.0974,-0.0569 0.173785,-0.13959 0.227258,-0.24584 0.05243,-0.10486 0.07917,-0.21354 0.07917,-0.32309 0,-0.12187 -0.03229,-0.2335 -0.09601,-0.33229 -0.06285,-0.0972 -0.187153,-0.21042 -0.380209,-0.34566" />
    <path
       inkscape:connector-curvature="0"
       id="path76"
       style="fill:#ffffff;fill-opacity:1;fill-rule:nonzero;stroke:none;stroke-width:0.17361151"
       d="m 32.569844,287.51839 c -0.342709,0 -0.54323,0.1566 -0.651043,0.28785 -0.142188,0.17291 -0.217362,0.37969 -0.217362,0.59809 0,0.16892 0.04687,0.33212 0.136112,0.47691 -0.0082,0.007 -0.01615,0.0149 -0.02361,0.0229 -0.05972,0.0648 -0.09132,0.15295 -0.08733,0.24219 l 0.03038,0.66215 c 0.008,0.17535 0.147049,0.31267 0.316667,0.31267 h 0.06267 c 0.0658,0 0.128299,-0.021 0.180382,-0.0583 0.131424,0.0436 0.242362,0.0642 0.342536,0.0642 0.163542,0 0.31632,-0.0406 0.453994,-0.12101 0.143924,-0.084 0.256598,-0.20538 0.334897,-0.36111 0.07292,-0.14532 0.109896,-0.29775 0.109896,-0.45278 0,-0.17865 -0.04774,-0.34323 -0.142015,-0.48907 -0.0052,-0.008 -0.01076,-0.0163 -0.01649,-0.0245 0.04514,-0.0615 0.0684,-0.13768 0.06493,-0.21494 l -0.02847,-0.62847 c -0.0082,-0.17552 -0.147223,-0.31302 -0.316668,-0.31302 h -0.06476 c -0.0625,0 -0.122569,0.0193 -0.173438,0.0537 -0.100694,-0.0382 -0.205035,-0.0575 -0.311285,-0.0575 m 0,0.28142 c 0.103125,0 0.204167,0.0262 0.300348,0.0781 0.03681,0.0212 0.05503,0.0243 0.06285,0.0243 0.01319,0 0.02344,-0.002 0.02951,-0.007 0.0016,-0.001 0.01545,-0.012 0.05486,-0.0714 0.0083,-0.0128 0.0224,-0.0205 0.03715,-0.0205 h 0.06476 c 0.02413,0 0.0441,0.0198 0.04531,0.0446 l 0.02847,0.62847 c 5.21e-4,0.0129 -0.004,0.0252 -0.0125,0.0346 -0.0085,0.009 -0.02049,0.0146 -0.03281,0.0146 h -0.06458 c -0.01806,0 -0.03455,-0.0113 -0.04167,-0.0285 -0.07396,-0.17847 -0.150347,-0.30087 -0.227083,-0.36389 -0.07448,-0.0613 -0.148438,-0.0922 -0.219966,-0.0922 -0.04028,0 -0.07361,0.0135 -0.10191,0.0412 -0.0276,0.0271 -0.04097,0.0569 -0.04097,0.091 0,0.025 0.0092,0.049 0.02795,0.0731 0.02622,0.0349 0.104341,0.10868 0.330556,0.26736 0.193056,0.13542 0.317362,0.24844 0.38021,0.34584 0.06354,0.0986 0.09601,0.21024 0.09601,0.33229 0,0.10937 -0.02674,0.21805 -0.07934,0.32292 -0.0533,0.10625 -0.129688,0.18906 -0.227084,0.24583 -0.09653,0.0563 -0.20434,0.0847 -0.32066,0.0847 -0.09132,0 -0.207813,-0.0279 -0.356251,-0.0856 -0.0474,-0.0179 -0.06076,-0.0188 -0.06215,-0.0188 -0.02743,0 -0.04948,0.0382 -0.06302,0.0705 -0.0073,0.017 -0.02361,0.0279 -0.04149,0.0279 h -0.06267 c -0.0243,0 -0.0441,-0.0196 -0.04531,-0.0446 l -0.03038,-0.66181 c -6.95e-4,-0.0128 0.0038,-0.0253 0.01233,-0.0345 0.0087,-0.009 0.02049,-0.0146 0.03281,-0.0146 h 0.06458 c 0.01945,0 0.03663,0.0129 0.04288,0.0318 0.05417,0.16424 0.128473,0.28855 0.221181,0.3691 0.09063,0.079 0.175869,0.1191 0.253126,0.1191 0.04913,0 0.08767,-0.0146 0.117882,-0.045 0.02969,-0.0297 0.0441,-0.0648 0.0441,-0.10694 0,-0.0521 -0.01493,-0.0955 -0.04601,-0.13316 -0.03524,-0.0425 -0.118055,-0.11007 -0.246007,-0.20052 -0.199653,-0.14323 -0.325869,-0.2507 -0.386286,-0.32848 -0.08976,-0.11562 -0.135417,-0.24548 -0.135417,-0.38576 0,-0.1526 0.05122,-0.29254 0.152431,-0.41563 0.102952,-0.12534 0.252431,-0.18889 0.444272,-0.18889" />
    <path
       inkscape:connector-curvature="0"
       id="path80"
       style="fill:#231f20;fill-opacity:1;fill-rule:nonzero;stroke:none;stroke-width:0.17361151"
       d="m 34.845022,287.85509 h -0.376911 v -0.62674 c 0,-0.026 -0.02031,-0.047 -0.04531,-0.047 h -0.06267 c -0.01667,0 -0.03194,0.01 -0.03976,0.0245 -0.0816,0.15486 -0.178299,0.29705 -0.287674,0.4224 -0.109376,0.12552 -0.244098,0.24705 -0.400348,0.36146 -0.01198,0.009 -0.0191,0.0231 -0.0191,0.0384 v 0.0689 c 0,0.0259 0.02014,0.0469 0.04531,0.0469 h 0.186632 v 0.94774 c 0,0.27118 0.01198,0.34427 0.02066,0.37518 0.02413,0.0894 0.07934,0.17066 0.164584,0.24149 0.08576,0.0717 0.191493,0.10799 0.31441,0.10799 0.249654,0 0.431946,-0.13698 0.541842,-0.40695 0.0082,-0.02 0.0019,-0.0432 -0.01493,-0.0561 l -0.05694,-0.0432 c -0.01042,-0.008 -0.02361,-0.0109 -0.03594,-0.008 -0.01267,0.003 -0.02361,0.0108 -0.03003,0.0222 -0.06441,0.11389 -0.130035,0.1717 -0.194792,0.1717 -0.0097,0 -0.02361,-0.007 -0.03906,-0.0189 -0.01667,-0.013 -0.02813,-0.03 -0.03472,-0.0517 -0.0045,-0.0148 -0.01215,-0.059 -0.01215,-0.19167 v -1.08958 h 0.376911 c 0.025,0 0.04531,-0.021 0.04531,-0.0469 v -0.19496 c 0,-0.026 -0.02031,-0.0469 -0.04531,-0.0469" />
    <path
       inkscape:connector-curvature="0"
       id="path84"
       style="fill:#ffffff;fill-opacity:1;fill-rule:nonzero;stroke:none;stroke-width:0.17361151"
       d="m 34.422851,286.8999 h -0.06267 c -0.116319,0 -0.222917,0.0656 -0.278473,0.17135 -0.07118,0.13525 -0.155556,0.25921 -0.250695,0.36823 -0.09583,0.11025 -0.215452,0.21789 -0.355382,0.32032 -0.08385,0.0613 -0.134202,0.16163 -0.134202,0.26823 v 0.0689 c 0,0.15052 0.09844,0.27778 0.232118,0.31632 v 0.6783 c 0,0.28264 0.01181,0.38368 0.03108,0.45243 0.03993,0.14653 0.125868,0.27552 0.255556,0.38351 0.13316,0.11129 0.300869,0.17014 0.484723,0.17014 0.358855,0 0.640106,-0.20573 0.79219,-0.57899 0.05729,-0.14028 0.01441,-0.30157 -0.104341,-0.39219 l -0.05729,-0.0436 c -0.05503,-0.0417 -0.119792,-0.0635 -0.1875,-0.0635 -0.01615,0 -0.03229,0.001 -0.04809,0.004 v -0.59792 h 0.105208 c 0.174653,0 0.316841,-0.1474 0.316841,-0.3283 v -0.19514 c 0,-0.1809 -0.142188,-0.3283 -0.316841,-0.3283 h -0.105208 v -0.34514 c 0,-0.18107 -0.142188,-0.32847 -0.317015,-0.32847 m 0,0.28142 c 0.025,0 0.04531,0.021 0.04531,0.047 v 0.62674 h 0.37691 c 0.025,0 0.04514,0.0208 0.04514,0.0467 v 0.19514 c 0,0.0259 -0.02014,0.0469 -0.04514,0.0469 h -0.37691 v 1.08958 c 0,0.13264 0.0075,0.17691 0.01215,0.19167 0.0066,0.0217 0.01806,0.0387 0.03455,0.0517 0.01563,0.0123 0.02951,0.0189 0.03924,0.0189 0.06476,0 0.130209,-0.0578 0.194792,-0.1717 0.0064,-0.0116 0.01736,-0.0195 0.02986,-0.0222 0.003,-7e-4 0.0061,-0.001 0.0092,-0.001 0.0095,0 0.01892,0.003 0.02674,0.009 l 0.05712,0.0432 c 0.01684,0.0128 0.02309,0.0361 0.01493,0.0561 -0.109896,0.26997 -0.292188,0.40695 -0.541842,0.40695 -0.122917,0 -0.22882,-0.0363 -0.314584,-0.10799 -0.08507,-0.0708 -0.140451,-0.15208 -0.16441,-0.24149 -0.0089,-0.0309 -0.02066,-0.104 -0.02066,-0.37518 v -0.94774 H 33.65844 c -0.025,0 -0.04531,-0.021 -0.04531,-0.0469 v -0.0689 c 0,-0.0153 0.0073,-0.0297 0.01927,-0.0384 0.15625,-0.11441 0.290973,-0.23594 0.400348,-0.36146 0.109202,-0.12535 0.206077,-0.26754 0.287674,-0.4224 0.0078,-0.0149 0.02309,-0.0245 0.03976,-0.0245 h 0.06267" />
    <path
       inkscape:connector-curvature="0"
       id="path88"
       style="fill:#231f20;fill-opacity:1;fill-rule:nonzero;stroke:none;stroke-width:0.17361151"
       d="m 36.524922,287.79983 c -0.09115,0 -0.186112,0.0342 -0.282119,0.10174 -0.0724,0.0509 -0.151389,0.13819 -0.239236,0.26493 v -0.26459 c 0,-0.026 -0.02014,-0.0469 -0.04531,-0.0469 H 35.23204 c -0.025,0 -0.04531,0.0208 -0.04531,0.0469 v 0.0729 c 0,0.024 0.01754,0.0443 0.04045,0.0465 0.06962,0.008 0.0967,0.0207 0.106597,0.0276 0.01597,0.0113 0.02882,0.0307 0.0382,0.0582 0.0036,0.0106 0.0125,0.0502 0.0125,0.1849 v 1.01823 c 0,0.20833 -0.02431,0.25816 -0.03177,0.26823 -0.01875,0.0259 -0.06181,0.0422 -0.124306,0.0476 -0.02361,0.002 -0.04167,0.0222 -0.04167,0.0467 v 0.0708 c 0,0.026 0.02031,0.0471 0.04531,0.0471 h 0.960072 c 0.02517,0 0.04531,-0.021 0.04531,-0.0471 v -0.0708 c 0,-0.0248 -0.01875,-0.0455 -0.04271,-0.0469 -0.07986,-0.005 -0.115973,-0.016 -0.132466,-0.025 -0.02083,-0.0115 -0.03628,-0.0297 -0.04722,-0.0552 -0.0016,-0.004 -0.0095,-0.0276 -0.0095,-0.12587 l -0.0019,-0.53299 c 0,-0.14809 0.01979,-0.28489 0.05851,-0.40677 0.02378,-0.074 0.05868,-0.13108 0.10434,-0.17014 0.02465,-0.0217 0.04931,-0.0321 0.07517,-0.0321 0.0083,0 0.01493,0.002 0.02083,0.005 0.0028,0.002 0.01719,0.0125 0.08073,0.07 0.05764,0.0519 0.126563,0.0785 0.204688,0.0785 0.07153,0 0.13316,-0.0299 0.18316,-0.0889 0.04844,-0.0571 0.07309,-0.13646 0.07309,-0.23576 0,-0.0948 -0.02569,-0.17049 -0.07656,-0.22466 -0.05104,-0.0547 -0.119271,-0.0823 -0.202605,-0.0823" />
    <path
       inkscape:connector-curvature="0"
       id="path92"
       style="fill:#ffffff;fill-opacity:1;fill-rule:nonzero;stroke:none;stroke-width:0.17361151"
       d="m 36.524922,287.51839 c -0.12882,0 -0.257292,0.0391 -0.382813,0.11615 -0.05191,-0.0384 -0.115278,-0.0611 -0.183855,-0.0611 h -0.726217 c -0.174827,0 -0.317015,0.1474 -0.317015,0.32848 v 0.0729 c 0,0.13716 0.08056,0.25556 0.197744,0.30435 0,0.004 0,0.009 0,0.0128 v 1.01823 c 0,0.0222 -3.47e-4,0.042 -8.68e-4,0.0589 -0.115799,0.0496 -0.196876,0.16858 -0.196876,0.30365 v 0.0708 c 0,0.18108 0.142188,0.32847 0.317015,0.32847 h 0.960072 c 0.174827,0 0.317014,-0.14739 0.317014,-0.32847 v -0.0708 c 0,-0.15018 -0.09757,-0.27778 -0.232118,-0.3165 l -0.0017,-0.47049 c 0,-0.0821 0.0075,-0.1592 0.02205,-0.2302 0.07708,0.0378 0.161633,0.0573 0.250522,0.0573 0.148958,0 0.286459,-0.0655 0.387327,-0.18455 0.06406,-0.0754 0.140625,-0.21007 0.140625,-0.42153 0,-0.2125 -0.08333,-0.34601 -0.153125,-0.42066 -0.102952,-0.10972 -0.240452,-0.16771 -0.397744,-0.16771 m 0,0.28142 c 0.08333,0 0.151563,0.0276 0.202605,0.0823 0.05087,0.0542 0.07656,0.12986 0.07656,0.22465 0,0.0993 -0.02465,0.17865 -0.07309,0.23576 -0.05,0.059 -0.111632,0.0889 -0.18316,0.0889 -0.07813,0 -0.147049,-0.0266 -0.204688,-0.0785 -0.06354,-0.0573 -0.07795,-0.0681 -0.08073,-0.07 -0.0059,-0.003 -0.0125,-0.005 -0.02083,-0.005 -0.02587,0 -0.05052,0.0106 -0.07517,0.0323 -0.04566,0.0389 -0.08056,0.096 -0.10434,0.16996 -0.03872,0.12188 -0.05851,0.25869 -0.05851,0.40678 l 0.0019,0.53298 c 0,0.0984 0.008,0.12205 0.0095,0.12587 0.01094,0.0255 0.02639,0.0437 0.04722,0.0552 0.01649,0.009 0.0526,0.0205 0.132466,0.025 0.02396,10e-4 0.04271,0.0221 0.04271,0.0469 v 0.0708 c 0,0.026 -0.02014,0.0471 -0.04531,0.0471 h -0.960072 c -0.025,0 -0.04531,-0.021 -0.04531,-0.0471 v -0.0708 c 0,-0.0243 0.01806,-0.0448 0.04167,-0.0467 0.0625,-0.005 0.105556,-0.0217 0.124306,-0.0476 0.0075,-0.0101 0.03177,-0.0599 0.03177,-0.26823 v -1.0184 c 0,-0.13472 -0.0089,-0.1743 -0.0125,-0.18489 -0.0094,-0.0274 -0.02222,-0.0469 -0.0382,-0.0582 -0.0099,-0.007 -0.03698,-0.02 -0.106597,-0.0276 -0.02292,-0.002 -0.04045,-0.0224 -0.04045,-0.0465 v -0.0729 c 0,-0.0259 0.02031,-0.0469 0.04531,-0.0469 h 0.726217 c 0.02517,0 0.04531,0.021 0.04531,0.0469 v 0.26458 c 0.08785,-0.12673 0.16684,-0.21406 0.239236,-0.26493 0.09601,-0.0675 0.190973,-0.10174 0.282119,-0.10174" />
    <path
       inkscape:connector-curvature="0"
       id="path96"
       style="fill:#231f20;fill-opacity:1;fill-rule:nonzero;stroke:none;stroke-width:0.17361151"
       d="m 38.259266,288.79063 h -0.640974 l 0.325175,-0.75608 z m 1.285593,0.83334 c -0.06788,-0.006 -0.120313,-0.0255 -0.155556,-0.0589 -0.03594,-0.0337 -0.101042,-0.12656 -0.207813,-0.37604 l -0.929689,-2.19046 c -0.0073,-0.017 -0.02361,-0.0279 -0.04149,-0.0279 h -0.03611 c -0.01788,0 -0.03403,0.0108 -0.04132,0.0276 l -0.922398,2.13143 c -0.08472,0.19757 -0.156077,0.32882 -0.211806,0.38959 -0.05312,0.0576 -0.119271,0.0922 -0.202084,0.10521 -0.02222,0.003 -0.03854,0.0231 -0.03854,0.0462 v 0.0729 c 0,0.026 0.02014,0.0471 0.04514,0.0471 h 0.857641 c 0.025,0 0.04514,-0.021 0.04514,-0.0471 v -0.0729 c 0,-0.0245 -0.01805,-0.0448 -0.04184,-0.0467 -0.172223,-0.0134 -0.220487,-0.0332 -0.233334,-0.041 -0.04444,-0.0271 -0.0651,-0.0667 -0.0651,-0.125 0,-0.0498 0.01667,-0.11597 0.04965,-0.196 l 0.09653,-0.23178 h 0.851044 l 0.125174,0.30434 c 0.04653,0.11372 0.05365,0.13594 0.05556,0.14358 0.0061,0.0201 0.0092,0.0399 0.0092,0.0587 0,0.0312 -0.01233,0.0446 -0.02222,0.0521 -0.0224,0.0158 -0.07274,0.0351 -0.185244,0.0351 h -0.05139 c -0.025,0 -0.04531,0.0208 -0.04531,0.0467 v 0.0729 c 0,0.026 0.02031,0.0471 0.04531,0.0471 h 1.247399 c 0.025,0 0.04531,-0.021 0.04531,-0.0471 v -0.0729 c 0,-0.0243 -0.01823,-0.0446 -0.04184,-0.0467" />
    <path
       inkscape:connector-curvature="0"
       id="path100"
       style="fill:#ffffff;fill-opacity:1;fill-rule:nonzero;stroke:none;stroke-width:0.17361151"
       d="m 37.690446,289.31164 h 0.492883 l 0.0184,0.045 c -0.125174,0.0394 -0.217883,0.15729 -0.224306,0.29826 -0.0078,-0.16389 -0.133681,-0.29913 -0.292883,-0.31146 -0.0024,-1.7e-4 -0.0049,-3.5e-4 -0.0071,-5.2e-4 z m 0.519793,-2.6224 h -0.03611 c -0.124653,0 -0.238195,0.076 -0.289063,0.19392 l -0.922398,2.13143 c -0.106077,0.24705 -0.15573,0.30521 -0.161112,0.31094 -0.0059,0.006 -0.01441,0.0156 -0.04549,0.0205 -0.156424,0.0247 -0.269792,0.16111 -0.269792,0.32465 v 0.0729 c 0,0.18107 0.142187,0.32847 0.317014,0.32847 h 0.857467 c 0.169619,0 0.308508,-0.13872 0.316668,-0.31233 0.0082,0.17361 0.146875,0.31233 0.316494,0.31233 h 1.247398 c 0.174653,0 0.317015,-0.1474 0.317015,-0.32847 v -0.0729 c 0,-0.16979 -0.128125,-0.31354 -0.291494,-0.32709 -0.0012,-1.7e-4 -0.0024,-3.4e-4 -0.0035,-3.4e-4 -0.02031,-0.0307 -0.06406,-0.10591 -0.133334,-0.26823 l -0.929516,-2.18976 c -0.05052,-0.11893 -0.16441,-0.19601 -0.290278,-0.19601 m -0.592015,2.10139 h 0.640973 l -0.315625,-0.75608 -0.325348,0.75608 m 0.592015,-1.81997 c 0.01805,0 0.0342,0.0109 0.04149,0.0279 l 0.929863,2.19046 c 0.106598,0.24948 0.171876,0.34236 0.20764,0.37604 0.03524,0.0333 0.08767,0.0533 0.155729,0.0589 0.02344,0.002 0.04167,0.0224 0.04167,0.0467 v 0.0729 c 0,0.026 -0.02031,0.047 -0.04531,0.047 h -1.24737 c -0.025,0 -0.04531,-0.021 -0.04531,-0.047 v -0.0729 c 0,-0.0259 0.02031,-0.0467 0.04531,-0.0467 h 0.05139 c 0.1125,0 0.162847,-0.0193 0.185417,-0.0351 0.0097,-0.007 0.02222,-0.0208 0.02222,-0.0521 0,-0.0188 -0.0031,-0.0385 -0.0094,-0.0587 -0.0019,-0.008 -0.0089,-0.0299 -0.05556,-0.14357 l -0.125,-0.30434 H 37.5118 l -0.09653,0.23177 c -0.03281,0.08 -0.04965,0.14618 -0.04965,0.196 0,0.0583 0.02083,0.0979 0.0651,0.125 0.01302,0.008 0.06111,0.0276 0.233508,0.041 0.02361,0.002 0.04184,0.0222 0.04184,0.0467 v 0.0729 c 0,0.026 -0.02031,0.047 -0.04531,0.047 h -0.857467 c -0.025,0 -0.04531,-0.021 -0.04531,-0.047 v -0.0729 c 0,-0.0231 0.01649,-0.0429 0.03854,-0.0462 0.08299,-0.013 0.148959,-0.0476 0.202084,-0.10521 0.05573,-0.0608 0.127084,-0.19201 0.21198,-0.38958 l 0.922224,-2.13143 c 0.0073,-0.0168 0.02361,-0.0276 0.04132,-0.0276 h 0.03611" />
    <path
       inkscape:connector-curvature="0"
       id="path104"
       style="fill:#231f20;fill-opacity:1;fill-rule:nonzero;stroke:none;stroke-width:0.17361151"
       d="m 36.01282,280.69345 c -0.405036,0.3408 -0.849481,0.63785 -1.279343,0.92518 -0.232813,0.15573 -0.452085,0.35156 -0.705557,0.48264 -1.182816,0.6125 -1.592886,0.84566 -1.752782,1.60069 -0.09358,0.44219 -0.375348,1.52709 -0.363543,1.59584 -0.229861,-0.40955 -0.32257,-1.14983 -0.5783,-1.19167 -0.260417,-0.0425 -1.648094,-0.0306 -2.086984,-0.0948 0.379515,-0.18125 0.875176,-0.52205 0.888718,-0.53177 0.368403,-0.26806 0.468577,-0.34184 0.788543,-0.78768 0.162848,-0.22708 0.451911,-0.66476 0.576911,-0.78733 0.569793,-0.55798 1.040628,-0.81267 1.218406,-1.43281 0.04913,-0.1717 0.09549,-0.33768 0.09236,-0.51302 -0.0012,-0.0754 -0.0026,-0.1533 6.95e-4,-0.23143 l 0.001,-0.0312 -0.02917,0.007 c -0.14323,0.0361 -0.15764,0.12951 -0.16823,0.19774 -0.0021,0.0132 -0.004,0.026 -0.0068,0.0379 -0.180209,0.74566 -0.563196,1.27136 -1.171183,1.60677 -0.24323,0.13438 -0.513717,0.22431 -0.803648,0.26754 -0.271702,0.0404 -0.536286,0.0608 -0.786634,0.0608 -1.180731,0 -2.119796,-0.43576 -2.870666,-1.33229 -0.613369,-0.73264 -0.978648,-1.60087 -1.085245,-2.58074 -0.004,-0.0377 -0.0076,-0.0753 -0.01111,-0.11319 -0.0052,-0.0557 -0.01042,-0.11146 -0.01753,-0.16702 -0.01667,-0.13246 -0.0075,-0.21736 0.02778,-0.25903 0.04271,-0.0502 0.131076,-0.0455 0.278993,0.0127 0.423786,0.16701 0.75087,0.4842 1.024308,0.76806 0.06962,0.0722 0.138889,0.14739 0.206077,0.22014 0.270834,0.29357 0.550869,0.59739 0.918578,0.78923 0.148786,0.0776 0.302085,0.1342 0.48264,0.1783 l 0.02899,0.007 -0.0012,-0.0309 c -0.0047,-0.11927 -0.07431,-0.15972 -0.135764,-0.19548 -0.0082,-0.005 -0.01632,-0.009 -0.0243,-0.0144 -0.818579,-0.50556 -1.415108,-1.18108 -1.772748,-2.00799 -0.268056,-0.61945 -0.351042,-1.33803 -0.261459,-2.26129 0.01007,-0.10226 0.02639,-0.20608 0.04219,-0.30643 0.0092,-0.0597 0.01875,-0.11927 0.02691,-0.17916 0.01528,-0.11164 0.05903,-0.24445 0.180903,-0.24445 0.05486,0 0.118924,0.0266 0.190278,0.0793 0.221529,0.16372 0.374827,0.38854 0.538022,0.6441 0.09358,0.14653 0.186633,0.29722 0.276737,0.44323 0.320487,0.51945 0.651738,1.05625 1.075871,1.51337 0.347223,0.37413 0.733161,0.6224 1.180211,0.75886 0.01771,0.005 0.03837,0.005 0.06805,0.001 0.01354,-0.002 0.02934,-0.003 0.04792,-0.004 l 0.04045,-0.002 -0.02257,-0.0347 c -0.136979,-0.2099 -0.31823,-0.34723 -0.493751,-0.47986 -0.05243,-0.0399 -0.106597,-0.0809 -0.15816,-0.12275 -0.826738,-0.67344 -1.473615,-1.5257 -1.923095,-2.53316 -0.296875,-0.66563 -0.386633,-1.37622 -0.273785,-2.17223 0.01823,-0.12882 0.04896,-0.25833 0.07865,-0.38386 0.01094,-0.0458 0.0217,-0.0918 0.03212,-0.13784 0.01285,-0.0573 0.02326,-0.0922 0.075,-0.0927 0.03438,0 0.03767,0.006 0.05677,0.042 l 0.0087,0.0149 c 0.23316,0.70157 0.86146,0.99341 1.469274,1.2757 0.146007,0.0679 0.297049,0.13802 0.437675,0.21215 0.225347,0.11858 0.457987,0.23195 0.683161,0.3415 0.621355,0.30243 1.264065,0.61545 1.814587,1.07413 0.69462,0.579 1.039586,1.26754 1.054517,2.10504 0.0019,0.10451 -0.02656,0.19688 -0.0566,0.29462 -0.0061,0.0201 -0.01233,0.0401 -0.01823,0.0602 -0.05,0.17066 -0.02292,0.29844 0.0783,0.3691 0.025,0.0175 0.05052,0.0262 0.07656,0.0262 0.05937,0 0.109201,-0.0457 0.153125,-0.0861 0.01684,-0.0154 0.03281,-0.03 0.04861,-0.0417 0.786287,-0.58473 1.071704,-1.43889 0.897919,-2.68786 -0.02326,-0.16788 -0.05451,-0.33715 -0.08472,-0.50069 -0.04635,-0.25 -0.09392,-0.50834 -0.11441,-0.76684 -0.07066,-0.89584 0.226563,-1.46199 0.935246,-1.78195 0.399132,-0.18004 0.913196,-0.28663 1.347572,-0.31233 0.138889,-0.008 0.239758,-0.0213 0.3158,-0.0589 0.06285,-0.0309 0.128993,-0.0318 0.180208,-0.0262 0.01563,0.0658 0.01997,0.0599 0.0092,0.1224 -0.0066,0.038 -0.02639,0.0823 -0.03941,0.13142 -0.269792,1.02171 -0.08594,2.25053 -0.02326,2.62136 0.08125,0.48021 0.19323,0.96146 0.301563,1.42657 0.101389,0.43559 0.206077,0.88594 0.285417,1.33403 0.273265,1.54445 -0.205035,2.84653 -1.421357,3.87032 m 1.688719,-3.92102 c -0.08073,-0.45625 -0.186459,-0.91007 -0.288889,-1.34965 -0.107119,-0.46111 -0.217883,-0.93768 -0.297744,-1.40903 -0.123438,-0.72865 -0.184202,-1.77935 0.01441,-2.54549 0.0033,-0.004 0.0042,-0.008 0.0054,-0.0144 0.02674,-0.14028 0.01163,-0.11789 0.06267,-0.42084 0.0158,-0.0931 0.09323,-0.21441 0.0036,-0.23264 -0.02691,-0.006 -0.137674,0.0587 -0.194271,0.0743 -0.104514,0.0288 -0.104514,0.0288 -0.271702,0.0783 -0.06997,0.0205 -0.157466,0.0335 -0.24323,0.0385 -0.424827,0.0252 -1.08403,0.12795 -1.543233,0.33524 -0.410591,0.18525 -0.710939,0.45695 -0.892536,0.80712 -0.177605,0.34254 -0.244619,0.7533 -0.205036,1.25591 0.0217,0.27309 0.07083,0.53889 0.11823,0.7967 0.02969,0.16042 0.06042,0.32622 0.08281,0.48785 0.152604,1.09653 -0.06007,1.82275 -0.689412,2.34219 0.02761,-0.0941 0.0526,-0.19913 0.05035,-0.32205 -0.01632,-0.91319 -0.40521,-1.6934 -1.155906,-2.31927 -0.575869,-0.47969 -1.23351,-0.79983 -1.872226,-1.11077 -0.222223,-0.10816 -0.452085,-0.22014 -0.672745,-0.33646 -0.146528,-0.0771 -0.300521,-0.14861 -0.449654,-0.21788 -0.580557,-0.26962 -0.978127,-0.47309 -1.278649,-1.01737 -0.008,-0.0146 -0.07622,-0.12447 -0.08438,-0.13906 l -0.02066,-0.034 c -0.02726,-0.051 -0.152952,-0.27934 -0.300175,-0.25989 -0.133681,0.0179 -0.162153,0.0859 -0.288716,0.4033 -0.01701,0.0427 -0.03368,0.0899 -0.04427,0.13524 -0.03125,0.13142 -0.06354,0.26771 -0.08351,0.40955 -0.09358,0.65955 -0.05486,0.96094 0.08542,1.59115 -0.01337,-0.0106 0.0934,0.22448 -0.130382,0.11528 -0.07587,-0.0372 -0.122743,-0.0394 -0.232466,-0.0653 -0.26823,-0.0632 -0.38889,0.026 -0.450001,0.51302 -0.0071,0.0573 -0.01667,0.11389 -0.02604,0.17361 -0.01649,0.10452 -0.03351,0.2125 -0.04427,0.32344 -0.09462,0.97414 -0.04288,1.66511 0.245313,2.33143 0.02153,0.0496 -0.03854,0.10087 -0.08038,0.075 -0.148264,-0.10069 -0.122569,-0.0733 -0.275868,-0.13385 -0.113195,-0.0444 -0.19132,-0.0519 -0.273786,-0.0519 -0.151215,0 -0.330209,0.003 -0.357466,0.0767 -0.06701,0.18177 -0.04774,0.41025 -0.02882,0.56077 0.0064,0.0512 0.01146,0.10295 0.01649,0.15781 0.0038,0.0392 0.0075,0.0785 0.01163,0.11754 0.113021,1.03767 0.499827,1.95729 1.150002,2.73368 0.794273,0.94844 1.829171,1.42935 3.075875,1.42935 0.263022,0 0.5408,-0.0214 0.825176,-0.0636 0.136285,-0.0205 0.390973,-0.12395 0.519619,-0.16319 -0.0559,0.0925 -0.367188,0.57396 -0.443751,0.66754 -0.332466,0.40711 -0.58698,0.65712 -0.882814,0.85312 -0.202952,0.13438 -1.103301,0.62726 -1.057815,0.70243 l 0.0057,0.01 c 0,0 0.02396,0.0279 0.05156,0.0337 0.313889,0.0755 2.155907,0.12899 2.397227,0.1684 0.185591,0.0302 0.325522,0.97778 0.585071,1.24653 0.0224,0.0231 0.05191,0.0347 0.0816,0.0347 0.02813,0 0.05625,-0.0104 0.07813,-0.0314 0.03507,-0.0337 0.12934,-0.3158 0.183854,-0.54445 0.0031,-0.0134 0.225869,-1.10087 0.332119,-1.52292 0.151042,-0.6 0.543578,-0.65885 1.659552,-1.21337 0.250869,-0.12465 0.466321,-0.32274 0.698266,-0.47795 0.435938,-0.29115 0.886634,-0.59254 1.303128,-0.94306 1.299308,-1.09358 1.8099,-2.48629 1.517538,-4.13942" />
    <path
       inkscape:connector-curvature="0"
       id="path108"
       style="fill:#231f20;fill-opacity:1;fill-rule:nonzero;stroke:none;stroke-width:0.17361151"
       d="m 35.534625,272.5566 c -0.08663,0.17118 -0.183507,0.25955 -0.209028,0.26754 -0.06337,0.0182 -0.115973,0.0276 -0.156251,0.0276 -0.01875,0 -0.02986,-0.002 -0.03385,-0.003 -0.0063,-0.013 -0.02326,-0.0599 -0.01823,-0.17795 0.01094,-0.2533 0.171007,-0.43004 0.389237,-0.43004 0.04045,0 0.08194,0.006 0.123785,0.0182 -0.005,0.0628 -0.03212,0.17153 -0.09566,0.2974 m 0.243403,-0.54271 c -0.08993,-0.0361 -0.18125,-0.0543 -0.271528,-0.0543 -0.365279,0 -0.643231,0.29392 -0.660592,0.69879 -0.008,0.18368 0.02274,0.31041 0.0941,0.3875 0.0533,0.0578 0.130555,0.0873 0.22934,0.0873 0.06597,0 0.140973,-0.0125 0.229341,-0.0378 0.151389,-0.0437 0.29757,-0.24705 0.383855,-0.42292 0.08385,-0.17049 0.154514,-0.40521 0.101737,-0.55209 -0.0184,-0.0509 -0.05226,-0.0847 -0.106251,-0.10642" />
  </g>
  <style
     type="text/css"
     id="style4403">
	.st0{fill:#FFFFFF;}
</style>
</svg>
