<?xml version="1.0" encoding="UTF-8" standalone="no"?>
<!-- Created with Inkscape (http://www.inkscape.org/) -->

<svg
   xmlns:dc="http://purl.org/dc/elements/1.1/"
   xmlns:cc="http://creativecommons.org/ns#"
   xmlns:rdf="http://www.w3.org/1999/02/22-rdf-syntax-ns#"
   xmlns:svg="http://www.w3.org/2000/svg"
   xmlns="http://www.w3.org/2000/svg"
   xmlns:sodipodi="http://sodipodi.sourceforge.net/DTD/sodipodi-0.dtd"
   xmlns:inkscape="http://www.inkscape.org/namespaces/inkscape"
   width="250"
   height="125"
   viewBox="0 0 66.145831 33.072918"
   version="1.1"
   id="svg8"
   inkscape:version="0.92.3 (2405546, 2018-03-11)"
   sodipodi:docname="vdc_overlay.svg">
  <defs
     id="defs2">
    <clipPath
       id="clipPath20"
       clipPathUnits="userSpaceOnUse">
      <path
         inkscape:connector-curvature="0"
         id="path18"
         d="M 0,170.079 H 198.425 V 0 H 0 Z" />
    </clipPath>
    <clipPath
       clipPathUnits="userSpaceOnUse"
       id="clipPath26">
      <path
         d="M 0,209 H 595.28 V 0 H 0 Z"
         id="path24-7"
         inkscape:connector-curvature="0" />
    </clipPath>
    <clipPath
       clipPathUnits="userSpaceOnUse"
       id="clipPath79">
      <path
         d="M 0,209 H 595.28 V 0 H 0 Z"
         id="path77"
         inkscape:connector-curvature="0" />
    </clipPath>
  </defs>
  <sodipodi:namedview
     id="base"
     pagecolor="#ffffff"
     bordercolor="#666666"
     borderopacity="1.0"
     inkscape:pageopacity="0.0"
     inkscape:pageshadow="2"
     inkscape:zoom="2.8"
     inkscape:cx="68.291439"
     inkscape:cy="54.558477"
     inkscape:document-units="px"
     inkscape:current-layer="layer1"
     showgrid="false"
     units="px"
     inkscape:window-width="1865"
     inkscape:window-height="1025"
     inkscape:window-x="55"
     inkscape:window-y="27"
     inkscape:window-maximized="1" />
  <metadata
     id="metadata5">
    <rdf:RDF>
      <cc:Work
         rdf:about="">
        <dc:format>image/svg+xml</dc:format>
        <dc:type
           rdf:resource="http://purl.org/dc/dcmitype/StillImage" />
        <dc:title></dc:title>
      </cc:Work>
    </rdf:RDF>
  </metadata>
  <g
     inkscape:label="Layer 1"
     inkscape:groupmode="layer"
     id="layer1"
     transform="translate(0,-263.92707)">
    <rect
       style="opacity:1;fill:#141d24;fill-opacity:1;stroke:none;stroke-width:1.1187892;stroke-linecap:round;stroke-linejoin:round;stroke-miterlimit:4;stroke-dasharray:none;stroke-opacity:1"
       id="rect917"
       width="66.145836"
       height="33.072918"
       x="4.4408921e-16"
       y="263.92709" />
    <g
       id="g1716"
       transform="matrix(1.2418631,0,0,1.2418631,16.644104,-61.975009)">
      <path
         inkscape:connector-curvature="0"
         id="path342"
         style="fill:#ffffff;fill-opacity:1;fill-rule:nonzero;stroke:none;stroke-width:0.18504043"
         d="M 9.8345994,283.95036 H 9.3594152 v -0.21021 h 0.4751842 z" />
      <g
         transform="matrix(0.18504044,0,0,-0.18504044,9.9127792,283.9503)"
         id="g344">
        <path
           inkscape:connector-curvature="0"
           id="path346"
           style="fill:#ffffff;fill-opacity:1;fill-rule:nonzero;stroke:none"
           d="m 0,0 h -36.722 l 0.634,1.018 54.342,87.66 L 18.82,87.762 72.567,0.867 71.601,0.269 71.415,0.569 71.248,0.466 18.137,86.333 -34.679,1.136 H -0.844 L 0.677,6.18 c 0.009,0.035 1.259,4.985 -2.627,11.538 l -0.026,0.051 -3.068,6.641 c -0.083,0.3 -1.994,7.427 2.002,13.759 1.671,2.649 3.518,4.603 5.642,5.97 0.912,1.985 2.535,4.742 5.24,7.076 3.358,2.899 7.502,4.4 12.316,4.461 l 0.366,0.003 c 5.862,0 10.647,-2.103 13.844,-6.081 3.48,-4.333 4.342,-9.987 3.653,-13.669 -0.012,-0.063 -0.27,-1.506 0.946,-2.636 l 0.073,-0.081 2.466,-3.381 c 0.034,-0.045 0.858,-1.174 0.797,-2.182 l -0.01,-0.212 c -0.05,-1.318 -0.679,-2.189 -3.844,-2.992 l 0.066,-8.204 c 0.099,-1.122 -0.449,-3.509 -3.244,-4.182 L 35.157,12.043 31.21,11.897 C 31.209,10.795 31.197,9.913 31.192,9.623 V 9.547 C 31.208,9.288 31.242,8.02 30.369,7.035 29.687,6.268 28.652,5.868 27.292,5.847 25.721,5.822 24.725,5.858 24.068,5.881 23.105,5.917 22.954,5.912 22.715,5.773 22.146,5.443 21.794,3.209 21.913,0.688 L 20.779,0.635 c -0.073,1.559 -0.087,5.276 1.365,6.12 0.538,0.313 0.949,0.299 1.941,0.262 0.669,-0.023 1.646,-0.059 3.189,-0.035 1.028,0.016 1.784,0.288 2.245,0.807 0.619,0.697 0.54,1.677 0.539,1.687 l -0.001,0.163 c 0.005,0.327 0.021,1.411 0.018,2.709 l -0.006,0.644 4.987,0.183 c 2.482,0.632 2.331,2.917 2.323,3.015 l -0.075,9.138 0.828,0.209 c 2.979,0.75 3.003,1.387 3.025,1.949 l 0.01,0.225 c 0.026,0.421 -0.33,1.112 -0.578,1.448 L 38.151,32.5 c -1.597,1.521 -1.288,3.426 -1.248,3.64 0.641,3.425 -0.168,8.695 -3.423,12.747 -2.973,3.7 -7.451,5.656 -12.953,5.656 l -0.36,-0.002 C 15.631,54.482 11.732,53.075 8.582,50.355 5.96,48.093 4.413,45.403 3.577,43.544 L 3.507,43.39 3.352,43.271 C 1.296,41.976 -0.472,40.115 -2.083,37.563 -5.653,31.904 -4.108,25.337 -3.96,24.754 l 3.002,-6.482 C 3.211,11.223 1.782,5.915 1.767,5.862 Z" />
      </g>
      <path
         inkscape:connector-curvature="0"
         id="path348"
         style="fill:#ffffff;fill-opacity:1;fill-rule:nonzero;stroke:none;stroke-width:0.18504043"
         d="m 23.251141,283.95036 h -9.441688 v -0.21021 h 9.441688 z" />
      <g
         transform="matrix(0.18504044,0,0,-0.18504044,9.251037,277.4804)"
         id="g350">
        <path
           inkscape:connector-curvature="0"
           id="path352"
           style="fill:#ffffff;fill-opacity:1;fill-rule:nonzero;stroke:none"
           d="M 0,0 -0.61,0.958 0.025,0.016 Z m 33.651,-22.627 -0.093,4.493 1.206,0.404 c 3.02,0.763 3.044,1.4 3.066,1.961 l 0.011,0.226 c 0.025,0.42 -0.331,1.111 -0.579,1.448 l -2.437,3.34 c -1.598,1.521 -1.289,3.426 -1.248,3.64 C 34.218,-3.69 33.409,1.58 30.154,5.632 27.181,9.333 22.702,11.289 17.2,11.289 L 16.841,11.286 C 12.931,11.236 9.48,10.179 6.589,8.143 L 5.935,9.071 c 3.083,2.171 6.748,3.297 10.895,3.35 l 0.365,0.003 c 5.863,0 10.649,-2.103 13.844,-6.081 3.481,-4.333 4.343,-9.987 3.654,-13.669 -0.013,-0.063 -0.272,-1.505 0.945,-2.635 l 0.072,-0.081 2.467,-3.381 c 0.034,-0.046 0.858,-1.176 0.798,-2.182 l -0.011,-0.213 c -0.05,-1.322 -0.683,-2.195 -3.881,-3.001 l -0.373,-0.126 0.077,-3.659 z" />
      </g>
    </g>
  </g>
  <style
     type="text/css"
     id="style4403">
	.st0{fill:#FFFFFF;}
</style>
</svg>
