<?xml version="1.0" encoding="UTF-8" standalone="no"?>
<!-- Created with Inkscape (http://www.inkscape.org/) -->

<svg
   xmlns:dc="http://purl.org/dc/elements/1.1/"
   xmlns:cc="http://creativecommons.org/ns#"
   xmlns:rdf="http://www.w3.org/1999/02/22-rdf-syntax-ns#"
   xmlns:svg="http://www.w3.org/2000/svg"
   xmlns="http://www.w3.org/2000/svg"
   xmlns:sodipodi="http://sodipodi.sourceforge.net/DTD/sodipodi-0.dtd"
   xmlns:inkscape="http://www.inkscape.org/namespaces/inkscape"
   width="78.338997"
   height="100"
   viewBox="0 0 20.727193 26.458334"
   version="1.1"
   id="svg3226"
   inkscape:version="0.92.3 (2405546, 2018-03-11)"
   sodipodi:docname="drop.svg">
  <defs
     id="defs3220" />
  <sodipodi:namedview
     id="base"
     pagecolor="#4c4c4c"
     bordercolor="#666666"
     borderopacity="1.0"
     inkscape:pageopacity="0"
     inkscape:pageshadow="2"
     inkscape:zoom="3.6203867"
     inkscape:cx="14.316841"
     inkscape:cy="45.759583"
     inkscape:document-units="px"
     inkscape:current-layer="layer1"
     showgrid="false"
     units="px"
     inkscape:pagecheckerboard="false"
     inkscape:window-width="1865"
     inkscape:window-height="1025"
     inkscape:window-x="55"
     inkscape:window-y="27"
     inkscape:window-maximized="1" />
  <metadata
     id="metadata3223">
    <rdf:RDF>
      <cc:Work
         rdf:about="">
        <dc:format>image/svg+xml</dc:format>
        <dc:type
           rdf:resource="http://purl.org/dc/dcmitype/StillImage" />
        <dc:title></dc:title>
      </cc:Work>
    </rdf:RDF>
  </metadata>
  <g
     inkscape:label="Layer 1"
     inkscape:groupmode="layer"
     id="layer1"
     transform="translate(0,-270.54165)">
    <path
       style="fill:#ffffff;fill-opacity:1;stroke-width:0.86363941"
       d="m 10.363814,271.08874 c -0.218082,0 -0.4363501,0.0842 -0.6047591,0.25266 C 9.3531399,271.73867 0,281.09191 0,286.63648 c 0,5.71729 4.6465044,10.3635 10.363814,10.3635 5.71728,0 10.363501,-4.64621 10.363501,-10.3635 0,-5.54457 -9.353146,-14.89781 -9.75906,-15.29508 -0.168403,-0.16842 -0.386377,-0.25266 -0.604441,-0.25266 z m -6.0456834,15.54774 c 0.4768949,0 0.8636201,0.38629 0.8636201,0.86362 0,1.90527 1.5499675,3.4545 3.4548112,3.4545 0.476895,0 0.86362,0.38629 0.86362,0.86363 0,0.47733 -0.386725,0.86362 -0.86362,0.86362 -2.857437,0 -5.1820694,-2.32431 -5.1820694,-5.18175 0,-0.47733 0.3867251,-0.86362 0.8636381,-0.86362 z"
       id="path1316"
       inkscape:connector-curvature="0" />
  </g>
</svg>
