<?xml version="1.0" encoding="UTF-8" standalone="no"?>
<!-- Created with Inkscape (http://www.inkscape.org/) -->

<svg
   xmlns:dc="http://purl.org/dc/elements/1.1/"
   xmlns:cc="http://creativecommons.org/ns#"
   xmlns:rdf="http://www.w3.org/1999/02/22-rdf-syntax-ns#"
   xmlns:svg="http://www.w3.org/2000/svg"
   xmlns="http://www.w3.org/2000/svg"
   xmlns:sodipodi="http://sodipodi.sourceforge.net/DTD/sodipodi-0.dtd"
   xmlns:inkscape="http://www.inkscape.org/namespaces/inkscape"
   width="100"
   height="100"
   viewBox="0 0 26.458333 26.458333"
   version="1.1"
   id="svg4422"
   inkscape:version="0.92.3 (2405546, 2018-03-11)"
   sodipodi:docname="github.svg">
  <defs
     id="defs4416" />
  <sodipodi:namedview
     id="base"
     pagecolor="#222222"
     bordercolor="#666666"
     borderopacity="1.0"
     inkscape:pageopacity="0"
     inkscape:pageshadow="2"
     inkscape:zoom="5.6"
     inkscape:cx="18.021548"
     inkscape:cy="57.142438"
     inkscape:document-units="px"
     inkscape:current-layer="layer1"
     showgrid="false"
     units="px"
     inkscape:window-width="1865"
     inkscape:window-height="1025"
     inkscape:window-x="55"
     inkscape:window-y="27"
     inkscape:window-maximized="1" />
  <metadata
     id="metadata4419">
    <rdf:RDF>
      <cc:Work
         rdf:about="">
        <dc:format>image/svg+xml</dc:format>
        <dc:type
           rdf:resource="http://purl.org/dc/dcmitype/StillImage" />
        <dc:title></dc:title>
      </cc:Work>
    </rdf:RDF>
  </metadata>
  <g
     inkscape:label="Layer 1"
     inkscape:groupmode="layer"
     id="layer1"
     transform="translate(0,-270.54167)">
    <circle
       style="opacity:1;fill:none;fill-opacity:1;stroke:#141d24;stroke-width:1.34248257;stroke-linecap:round;stroke-linejoin:round;stroke-miterlimit:4;stroke-dasharray:none;stroke-opacity:1"
       id="path4967"
       cx="13.229166"
       cy="283.77084"
       r="12.557925" />
    <path
       id="path9445"
       d="m 11.587716,288.26254 c -2.9919689,0.89761 -2.9919689,-1.49598 -4.1887589,-1.79518 m 8.3775199,3.59037 v -2.31577 a 2.0165885,2.0165885 0 0 0 -0.562492,-1.56183 c 1.878959,-0.20943 3.85366,-0.92153 3.85366,-4.18875 a 3.2552645,3.2552645 0 0 0 -0.897591,-2.24398 3.0338587,3.0338587 0 0 0 -0.05385,-2.25595 c 0,0 -0.706105,-0.20943 -2.339722,0.88564 a 8.0065148,8.0065148 0 0 0 -4.188759,0 c -1.6336169,-1.09507 -2.3397219,-0.88564 -2.3397219,-0.88564 a 3.0338587,3.0338587 0 0 0 -0.05385,2.25595 3.2552645,3.2552645 0 0 0 -0.897591,2.26194 c 0,3.24329 1.9747009,3.95537 3.8536599,4.18875 a 2.0165885,2.0165885 0 0 0 -0.562492,1.54387 v 2.31577"
       inkscape:connector-curvature="0"
       style="fill:none;stroke:#141d24;stroke-width:1.19678843;stroke-linecap:round;stroke-linejoin:round;stroke-opacity:1" />
  </g>
</svg>
